<svg viewBox="0 0 444 378" fill="none" xmlns="http://www.w3.org/2000/svg" class="w-full">
	<path fill-rule="evenodd" clip-rule="evenodd" d="M221.31 3.26669C220.169 3.26669 219.03 3.27694 217.894 3.29736L217.871 2.02105C219.015 2.00049 220.161 1.99017 221.31 1.99017C222.381 1.99017 223.45 1.99915 224.517 2.01704L224.496 3.29338C223.436 3.27561 222.374 3.26669 221.31 3.26669ZM237.174 3.93241C235.069 3.75496 232.954 3.6125 230.83 3.50562L230.894 2.23071C233.033 2.33832 235.162 2.48175 237.281 2.6604L237.174 3.93241ZM211.068 3.54328C208.787 3.66684 206.516 3.83145 204.257 4.03637L204.141 2.76507C206.416 2.55876 208.702 2.39303 210.999 2.26863L211.068 3.54328ZM249.771 5.42618C247.688 5.10702 245.594 4.82234 243.489 4.57273L243.64 3.3051C245.759 3.55641 247.867 3.84304 249.964 4.16439L249.771 5.42618ZM197.468 4.77738C195.202 5.06668 192.949 5.39666 190.71 5.76656L190.502 4.50711C192.757 4.13467 195.025 3.80243 197.306 3.51115L197.468 4.77738ZM262.253 7.77857C260.194 7.3168 258.121 6.88914 256.036 6.49619L256.273 5.24176C258.372 5.63741 260.459 6.06802 262.533 6.53297L262.253 7.77857ZM183.993 7.00337C181.756 7.45802 179.534 7.95274 177.327 8.48674L177.027 7.24603C179.249 6.70834 181.487 6.21021 183.739 5.75242L183.993 7.00337ZM274.536 10.9783C272.511 10.3758 270.471 9.80675 268.418 9.27188L268.739 8.03658C270.807 8.57514 272.861 9.14808 274.9 9.75475L274.536 10.9783ZM170.72 10.2151C168.524 10.8332 166.344 11.4905 164.181 12.1863L163.79 10.9711C165.968 10.2705 168.163 9.60864 170.374 8.98628L170.72 10.2151ZM286.57 15.0133C284.592 14.2737 282.598 13.5668 280.589 12.8931L280.995 11.6829C283.018 12.3611 285.025 13.073 287.017 13.8177L286.57 15.0133ZM157.72 14.3978C156.649 14.7866 155.583 15.1849 154.521 15.5926L154.063 14.4009C155.132 13.9904 156.206 13.5893 157.284 13.1979L157.72 14.3978ZM298.302 19.866C296.377 18.9916 294.435 18.1489 292.476 17.3387L292.964 16.1591C294.937 16.9749 296.892 17.8234 298.83 18.7039L298.302 19.866ZM309.67 25.5085C307.81 24.5048 305.931 23.5318 304.034 22.5902L304.602 21.4468C306.512 22.3949 308.404 23.3746 310.276 24.3852L309.67 25.5085ZM320.63 31.9171C318.842 30.7882 317.034 29.6889 315.206 28.6199L315.85 27.5179C317.691 28.5943 319.512 29.7011 321.312 30.8378L320.63 31.9171ZM331.126 39.0561C329.419 37.8077 327.689 36.5876 325.938 35.3966L326.656 34.3411C328.419 35.5403 330.161 36.7687 331.88 38.0257L331.126 39.0561ZM341.114 46.8924C339.495 45.5308 337.852 44.1964 336.187 42.8897L336.975 41.8854C338.652 43.201 340.305 44.5446 341.935 45.9154L341.114 46.8924ZM350.546 55.3886C349.023 53.9198 347.475 52.4768 345.902 51.0603L346.756 50.1118C348.34 51.538 349.899 52.9909 351.432 54.4696L350.546 55.3886ZM86.0933 59.5721C86.8613 58.7726 87.6364 57.98 88.4184 57.1943L89.3231 58.0948C88.5464 58.8752 87.7766 59.6624 87.0138 60.4564L86.0933 59.5721ZM359.381 64.5049C357.961 62.9359 356.514 61.3912 355.041 59.8716L355.958 58.9833C357.44 60.5133 358.897 62.0685 360.327 63.6481L359.381 64.5049ZM77.2236 69.4826C78.6432 67.7789 80.0926 66.1007 81.5709 64.449L82.5221 65.3003C81.0538 66.9408 79.6143 68.6076 78.2043 70.2998L77.2236 69.4826ZM367.576 74.1993C366.265 72.5373 364.927 70.8981 363.561 69.2826L364.536 68.4585C365.911 70.0851 367.259 71.7354 368.578 73.4088L367.576 74.1993ZM69.0767 79.9954C70.3725 78.195 71.6995 76.4186 73.057 74.6669L74.066 75.4488C72.7178 77.1886 71.3997 78.953 70.1127 80.7411L69.0767 79.9954ZM375.094 84.4296C373.899 82.6815 372.675 80.9548 371.422 79.2503L372.451 78.4944C373.712 80.2106 374.945 81.9491 376.148 83.7091L375.094 84.4296ZM61.695 91.059C62.8601 89.1708 64.0579 87.3047 65.2876 85.4617L66.3494 86.1702C65.1281 88.0007 63.9385 89.854 62.7814 91.7293L61.695 91.059ZM381.896 95.1464C380.823 93.3206 379.719 91.5147 378.586 89.7294L379.664 89.0453C380.805 90.8429 381.916 92.6612 382.996 94.4996L381.896 95.1464ZM55.1185 102.619C56.1465 100.653 57.2084 98.7061 58.3036 96.7809L59.4132 97.4121C58.3255 99.3241 57.2708 101.257 56.2499 103.211L55.1185 102.619ZM387.949 106.304C387.004 104.41 386.027 102.533 385.019 100.676L386.141 100.067C387.156 101.937 388.139 103.827 389.091 105.735L387.949 106.304ZM49.3833 114.62C50.2684 112.584 51.1886 110.567 52.1434 108.569L53.2951 109.119C52.3469 111.103 51.433 113.107 50.554 115.129L49.3833 114.62ZM393.223 117.852C392.409 115.895 391.563 113.954 390.685 112.032L391.846 111.501C392.73 113.437 393.582 115.391 394.402 117.362L393.223 117.852ZM44.5214 127C45.2585 124.905 46.032 122.827 46.8409 120.767L48.0291 121.234C47.2257 123.28 46.4576 125.343 45.7255 127.423L44.5214 127ZM397.689 129.732C397.012 127.724 396.302 125.731 395.559 123.755L396.754 123.306C397.502 125.296 398.217 127.302 398.898 129.324L397.689 129.732ZM40.5595 139.696C41.1447 137.553 41.7672 135.425 42.4262 133.314L43.6447 133.694C42.9903 135.791 42.3721 137.904 41.7909 140.033L40.5595 139.696ZM401.327 141.898C400.789 139.845 400.218 137.807 399.612 135.782L400.835 135.417C401.445 137.455 402.021 139.508 402.562 141.574L401.327 141.898ZM37.5182 152.645C37.9486 150.464 38.417 148.297 38.9226 146.144L40.1653 146.436C39.6632 148.574 39.198 150.726 38.7705 152.892L37.5182 152.645ZM404.116 154.276C403.721 152.192 403.292 150.119 402.828 148.06L404.073 147.78C404.54 149.853 404.973 151.94 405.37 154.039L404.116 154.276ZM35.4107 165.778C35.6846 163.57 35.997 161.375 36.3473 159.192L37.6077 159.394C37.2598 161.562 36.9495 163.743 36.6775 165.935L35.4107 165.778ZM406.049 166.821C405.798 164.716 405.512 162.622 405.192 160.54L406.453 160.346C406.776 162.442 407.064 164.551 407.317 166.67L406.049 166.821ZM34.2423 179.027C34.3593 176.804 34.5152 174.592 34.7093 172.39L35.9809 172.502C35.7881 174.689 35.6333 176.886 35.5171 179.094L34.2423 179.027ZM407.122 179.48C407.014 177.356 406.871 175.241 406.693 173.136L407.965 173.028C408.144 175.147 408.289 177.277 408.397 179.416L407.122 179.48ZM33.9805 189C33.9805 187.888 33.9902 186.779 34.0095 185.672L35.2859 185.694C35.2666 186.794 35.257 187.896 35.257 189C35.257 190.064 35.266 191.127 35.2838 192.186L34.0075 192.208C33.9895 191.141 33.9805 190.072 33.9805 189ZM407.362 189C407.362 187.936 407.353 186.874 407.335 185.814L408.612 185.792C408.63 186.859 408.639 187.929 408.639 189C408.639 190.117 408.629 191.231 408.609 192.343L407.333 192.32C407.352 191.216 407.362 190.109 407.362 189ZM34.6541 204.972C34.4746 202.853 34.3304 200.723 34.2222 198.584L35.4971 198.52C35.6046 200.644 35.7478 202.759 35.9261 204.864L34.6541 204.972ZM406.632 205.569C406.826 203.373 406.982 201.166 407.1 198.949L408.374 199.016C408.256 201.249 408.099 203.471 407.903 205.681L406.632 205.569ZM36.1658 217.655C35.8429 215.558 35.5547 213.449 35.3022 211.33L36.5697 211.179C36.8206 213.284 37.1067 215.378 37.4275 217.46L36.1658 217.655ZM404.991 218.733C405.342 216.556 405.655 214.366 405.929 212.164L407.196 212.322C406.92 214.539 406.605 216.744 406.251 218.936L404.991 218.733ZM38.5462 230.221C38.079 228.147 37.6462 226.06 37.2486 223.961L38.5028 223.724C38.8977 225.808 39.3275 227.881 39.7915 229.94L38.5462 230.221ZM402.411 231.745C402.918 229.598 403.387 227.437 403.818 225.262L405.07 225.51C404.636 227.7 404.164 229.876 403.654 232.038L402.411 231.745ZM41.7836 242.583C41.174 240.545 40.5984 238.493 40.0572 236.426L41.2921 236.102C41.8295 238.155 42.4012 240.194 43.0066 242.218L41.7836 242.583ZM398.902 244.537C399.562 242.432 400.186 240.311 400.772 238.174L402.003 238.511C401.412 240.663 400.785 242.799 400.12 244.919L398.902 244.537ZM45.8654 254.695C45.1173 252.704 44.4022 250.698 43.7208 248.676L44.9304 248.269C45.6072 250.276 46.3174 252.269 47.0603 254.245L45.8654 254.695ZM394.48 257.045C395.291 254.991 396.065 252.92 396.803 250.832L398.007 251.258C397.264 253.36 396.484 255.446 395.668 257.513L394.48 257.045ZM50.7731 266.499C49.8888 264.563 49.0366 262.609 48.2172 260.638L49.3959 260.148C50.2097 262.105 51.056 264.046 51.9342 265.969L50.7731 266.499ZM389.17 269.202C390.126 267.211 391.048 265.201 391.934 263.172L393.104 263.683C392.211 265.726 391.283 267.75 390.321 269.755L389.17 269.202ZM56.4778 277.933C55.4632 276.063 54.4795 274.174 53.5276 272.266L54.6698 271.696C55.6152 273.591 56.5922 275.467 57.5999 277.325L56.4778 277.933ZM383.001 280.947C384.098 279.029 385.161 277.09 386.191 275.13L387.321 275.724C386.284 277.697 385.214 279.649 384.109 281.58L383.001 280.947ZM62.9552 288.955C61.8143 287.157 60.7033 285.339 59.6228 283.5L60.7233 282.854C61.7964 284.68 62.8999 286.485 64.033 288.271L62.9552 288.955ZM376.008 292.221C377.239 290.385 378.439 288.527 379.605 286.646L380.69 287.319C379.516 289.213 378.308 291.084 377.068 292.932L376.008 292.221ZM70.1683 299.506C68.9071 297.79 67.6745 296.051 66.4712 294.291L67.525 293.571C68.7201 295.319 69.9443 297.045 71.1969 298.75L70.1683 299.506ZM368.23 302.967C369.589 301.224 370.917 299.456 372.215 297.663L373.249 298.412C371.942 300.216 370.605 301.997 369.236 303.752L368.23 302.967ZM78.0831 309.542C76.7081 307.915 75.3603 306.265 74.0406 304.591L75.0429 303.801C76.3537 305.463 77.6923 307.102 79.058 308.718L78.0831 309.542ZM359.707 313.134C361.187 311.491 362.637 309.822 364.059 308.127L365.037 308.947C363.606 310.653 362.145 312.334 360.655 313.989L359.707 313.134ZM86.6614 319.017C85.1787 317.487 83.7219 315.932 82.2917 314.352L83.238 313.495C84.6585 315.064 86.1054 316.609 87.5781 318.129L86.6614 319.017ZM352.853 320.349C353.636 319.568 354.412 318.78 355.18 317.985L356.098 318.872C355.324 319.672 354.543 320.466 353.755 321.252L352.853 320.349ZM95.8627 327.888C94.2793 326.462 92.7203 325.009 91.1866 323.531L92.0726 322.612C93.5959 324.08 95.1443 325.523 96.717 326.94L95.8627 327.888ZM105.644 336.115C103.967 334.799 102.314 333.456 100.684 332.085L101.505 331.108C103.124 332.469 104.767 333.804 106.432 335.11L105.644 336.115ZM115.963 343.659C114.2 342.46 112.458 341.231 110.739 339.974L111.493 338.944C113.2 340.192 114.93 341.412 116.681 342.603L115.963 343.659ZM126.769 350.482C124.928 349.406 123.107 348.299 121.307 347.162L121.989 346.083C123.777 347.212 125.585 348.311 127.413 349.38L126.769 350.482ZM138.017 356.553C136.107 355.605 134.215 354.626 132.343 353.615L132.949 352.492C134.809 353.495 136.688 354.468 138.585 355.41L138.017 356.553ZM300.084 358.721C299.06 359.195 298.032 359.661 296.998 360.117L296.483 358.949C297.509 358.496 298.53 358.034 299.547 357.563L300.084 358.721ZM149.655 361.841C147.682 361.025 145.727 360.177 143.789 359.296L144.317 358.134C146.242 359.009 148.184 359.851 150.143 360.661L149.655 361.841ZM290.752 362.739C288.659 363.574 286.546 364.372 284.416 365.133L283.987 363.931C286.102 363.175 288.2 362.383 290.28 361.554L290.752 362.739ZM161.624 366.317C159.601 365.639 157.594 364.927 155.602 364.182L156.049 362.987C158.027 363.726 160.021 364.433 162.03 365.107L161.624 366.317ZM277.996 367.295C275.848 367.975 273.683 368.617 271.502 369.221L271.162 367.991C273.328 367.391 275.478 366.753 277.611 366.078L277.996 367.295ZM173.88 369.964C171.812 369.425 169.758 368.852 167.719 368.245L168.083 367.022C170.108 367.624 172.148 368.193 174.201 368.728L173.88 369.964ZM264.942 370.91C262.752 371.432 260.546 371.915 258.326 372.359L258.076 371.108C260.28 370.667 262.471 370.187 264.647 369.668L264.942 370.91ZM186.346 372.758C184.247 372.363 182.16 371.932 180.086 371.467L180.365 370.222C182.425 370.683 184.498 371.111 186.583 371.504L186.346 372.758ZM251.661 373.568C249.439 373.929 247.204 374.252 244.956 374.534L244.797 373.268C247.029 372.987 249.249 372.667 251.456 372.308L251.661 373.568ZM198.979 374.695C196.86 374.444 194.752 374.157 192.655 373.836L192.848 372.574C194.931 372.893 197.025 373.178 199.13 373.427L198.979 374.695ZM238.222 375.258C235.981 375.458 233.729 375.619 231.465 375.74L231.398 374.465C233.645 374.345 235.883 374.185 238.109 373.987L238.222 375.258ZM211.725 375.769C209.586 375.662 207.457 375.518 205.338 375.34L205.445 374.068C207.55 374.245 209.665 374.388 211.789 374.495L211.725 375.769ZM224.697 375.98C223.57 376 222.441 376.01 221.31 376.01C220.238 376.01 219.169 376.001 218.102 375.983L218.123 374.707C219.183 374.725 220.245 374.733 221.31 374.733C222.433 374.733 223.555 374.724 224.674 374.704L224.697 375.98Z" fill="#3E4FDE">
	</path>
	<path d="M209.151 94.8651L141.264 127.63V208.39C141.264 251.667 217.03 292.995 217.03 292.995C217.03 292.995 292.796 251.667 292.796 208.39V127.63L224.908 94.8651C222.412 93.6465 219.734 93.0192 217.03 93.0192C214.325 93.0192 211.648 93.6465 209.151 94.8651Z" fill="url(#paint0_linear_3517_29426)">
	</path>
	<path d="M164.359 117.027L141.264 128.174V208.933C141.264 252.21 217.03 293.539 217.03 293.539C217.03 293.539 224.793 289.304 235.349 282.127M193.16 103.127L209.151 95.4086C211.648 94.1901 214.325 93.5627 217.03 93.5627C219.734 93.5627 222.412 94.1901 224.908 95.4086L292.796 128.174V208.933C292.796 230.704 273.622 251.982 254.565 267.753" stroke="#8DAECE" stroke-width="1.08683" stroke-linecap="round" stroke-linejoin="round">
	</path>
	<path d="M210.805 115.95L199.682 121.321L187.862 127.028L176.043 132.736L157.154 141.857V205.714C157.154 239.932 217.031 272.611 217.031 272.611C217.031 272.611 276.907 239.932 276.907 205.714V141.857L223.257 115.95C221.284 114.986 219.168 114.49 217.031 114.49C214.894 114.49 212.777 114.986 210.805 115.95Z" fill="url(#paint1_linear_3517_29426)">
	</path>
	<path d="M202.146 183.197V176.946C202.146 172.991 203.717 169.198 206.514 166.401C209.311 163.604 213.104 162.033 217.059 162.033C221.014 162.033 224.807 163.604 227.604 166.401C230.401 169.198 231.972 172.991 231.972 176.946V183.197M197.242 183.197H236.901C237.623 183.198 238.316 183.486 238.826 183.996C239.336 184.507 239.623 185.2 239.623 185.922V215.229C239.623 215.951 239.336 216.644 238.825 217.154C238.315 217.665 237.622 217.953 236.9 217.953H197.244C196.521 217.953 195.828 217.666 195.317 217.155C194.807 216.644 194.52 215.951 194.52 215.229V185.922C194.52 185.199 194.807 184.506 195.317 183.995C195.828 183.484 196.521 183.197 197.244 183.197H197.242Z" stroke="#3E4FDE" stroke-width="1.63024" stroke-linecap="round" stroke-linejoin="round">
	</path>
	<path d="M217.059 206.359C220.254 206.359 222.843 203.769 222.843 200.575C222.843 197.381 220.254 194.791 217.059 194.791C213.865 194.791 211.275 197.381 211.275 200.575C211.275 203.769 213.865 206.359 217.059 206.359Z" stroke="#3E4FDE" stroke-width="1.63024" stroke-linecap="round" stroke-linejoin="round">
	</path>
	<path d="M261.359 86.4979L261.359 113.125" stroke="#8DAECE" stroke-width="1.08683">
	</path>
	<path d="M174.412 302.233L174.412 263.65" stroke="#8DAECE" stroke-width="1.08683">
	</path>
	<path d="M356.457 156.598H292.878" stroke="#8DAECE" stroke-width="1.08683">
	</path>
	<path d="M322.764 178.879H292.876" stroke="#8DAECE" stroke-width="1.08683">
	</path>
	<path d="M111.377 185.943L141.265 185.943" stroke="#8DAECE" stroke-width="1.08683">
	</path>
	<path d="M91.8125 213.657L141.263 213.657" stroke="#8DAECE" stroke-width="1.08683">
	</path>
	<circle cx="261.359" cy="75.0867" r="9.23802" fill="#3E4FDE" fill-opacity="0.2">
	</circle>
	<circle cx="261.359" cy="75.0866" r="2.17365" fill="#3E4FDE">
	</circle>
	<circle cx="174.412" cy="316.906" r="9.23802" fill="#3E4FDE" fill-opacity="0.2">
	</circle>
	<circle cx="174.412" cy="316.906" r="2.17365" fill="#3E4FDE">
	</circle>
	<circle cx="370.041" cy="156.598" r="9.23802" fill="#3E4FDE" fill-opacity="0.2">
	</circle>
	<circle cx="370.041" cy="156.599" r="2.17365" fill="#3E4FDE">
	</circle>
	<circle cx="335.264" cy="179.422" r="7.60778" fill="white" fill-opacity="0.51" stroke="#3E4FDE" stroke-width="1.08683">
	</circle>
	<circle cx="335.263" cy="179.421" r="2.17365" fill="#3E4FDE">
	</circle>
	<circle cx="98.879" cy="185.399" r="7.60778" transform="rotate(-180 98.879 185.399)" fill="white" fill-opacity="0.51" stroke="#3E4FDE" stroke-width="1.08683">
	</circle>
	<circle cx="98.8791" cy="185.4" r="2.17365" transform="rotate(-180 98.8791 185.4)" fill="#3E4FDE">
	</circle>
	<circle cx="77.6858" cy="213.657" r="9.23802" transform="rotate(-180 77.6858 213.657)" fill="#3E4FDE" fill-opacity="0.2">
	</circle>
	<circle cx="77.6857" cy="213.657" r="2.17365" transform="rotate(-180 77.6857 213.657)" fill="#3E4FDE">
	</circle>
	<circle cx="342.58" cy="332.289" r="16.2756" transform="rotate(-180 342.58 332.289)" fill="#3E4FDE">
	</circle>
	<circle cx="342.259" cy="332.608" r="23.6156" transform="rotate(-180 342.259 332.608)" fill="#3E4FDE" fill-opacity="0.2">
	</circle>
	<circle cx="100.998" cy="49.2213" r="23.6156" transform="rotate(-180 100.998 49.2213)" fill="#3E4FDE" fill-opacity="0.2">
	</circle>
	<circle cx="100.678" cy="48.9026" r="16.2756" transform="rotate(-180 100.678 48.9026)" fill="#3E4FDE">
	</circle>
	<ellipse cx="149.825" cy="17.6279" rx="6.06346" ry="6.06346" transform="rotate(-180 149.825 17.6279)" fill="#3E4FDE">
	</ellipse>
	<ellipse cx="304.921" cy="355.267" rx="6.06346" ry="6.06346" transform="rotate(-180 304.921 355.267)" fill="#3E4FDE">
	</ellipse>
	<g clip-path="url(#clip0_3517_29426)">
		<path d="M335.666 333.034L340.453 337.821L349.495 328.779" stroke="white" stroke-width="1.27652" stroke-linecap="square">
		</path>
	</g>
	<path d="M93.9766 49.009L98.7635 53.7959L107.806 44.7539" stroke="white" stroke-width="1.27652" stroke-linecap="square">
	</path>
	<defs>
		<linearGradient id="paint0_linear_3517_29426" x1="217.03" y1="93.0192" x2="217.03" y2="292.995" gradientUnits="userSpaceOnUse">
			<stop stop-color="#ECF3FD">
			</stop>
			<stop offset="1" stop-color="white" stop-opacity="0">
			</stop>
		</linearGradient>
		<linearGradient id="paint1_linear_3517_29426" x1="217.031" y1="114.49" x2="217.031" y2="272.611" gradientUnits="userSpaceOnUse">
			<stop stop-color="#C9DAF4">
			</stop>
			<stop offset="1" stop-color="#DEE9FB">
			</stop>
		</linearGradient>
		<clipPath id="clip0_3517_29426">
			<rect width="15.9565" height="15.9565" fill="white" transform="translate(334.602 326.226)">
			</rect>
		</clipPath>
	</defs>
</svg>
