<svg viewBox="0 0 444 378" fill="none" xmlns="http://www.w3.org/2000/svg" class="w-full">
	<path opacity="0.35" fill-rule="evenodd" clip-rule="evenodd" d="M322.262 3.09712C320.465 2.61567 318.592 2.36315 316.683 2.36315L312.377 2.36315L312.377 4.01204L316.683 4.01204C318.447 4.01204 320.176 4.24526 321.835 4.6898L322.262 3.09712ZM131.523 2.36315L131.523 4.01203L127.217 4.01203C125.453 4.01203 123.723 4.24525 122.065 4.68979L121.638 3.09711C123.434 2.61566 125.307 2.36315 127.217 2.36315L131.523 2.36315ZM111.975 8.67577L113.141 9.84177C111.927 11.0559 110.86 12.4373 109.978 13.9645L107.825 17.6937L106.397 16.8693L108.55 13.1401C109.505 11.4867 110.66 9.99076 111.975 8.67577ZM102.091 24.3276L103.519 25.152L99.2132 32.6103L97.7852 31.7859L102.091 24.3276ZM93.4792 39.2442L94.9072 40.0686L90.6011 47.5269L89.1731 46.7025L93.4792 39.2442ZM84.8671 54.1608L86.2951 54.9853L81.989 62.4436L80.561 61.6191L84.8671 54.1608ZM76.255 69.0774L77.6829 69.9019L73.3769 77.3602L71.9489 76.5357L76.255 69.0774ZM67.6429 83.994L69.0708 84.8185L64.7648 92.2768L63.3368 91.4523L67.6429 83.994ZM59.0307 98.9107L60.4587 99.7351L56.1526 107.193L54.7247 106.369L59.0307 98.9107ZM50.4186 113.827L51.8466 114.652L47.5406 122.11L46.1126 121.286L50.4186 113.827ZM41.8065 128.744L43.2345 129.568L38.9284 137.027L37.5005 136.202L41.8065 128.744ZM33.1944 143.661L34.6224 144.485L30.3163 151.943L28.8883 151.119L33.1944 143.661ZM24.5823 158.577L26.0102 159.402L21.7042 166.86L20.2762 166.035L24.5823 158.577ZM15.9702 173.494L17.3981 174.318L15.2451 178.047C14.3633 179.575 13.7005 181.189 13.2561 182.848L11.6634 182.421C12.1447 180.625 12.8626 178.876 13.8171 177.223L15.9702 173.494ZM11.6634 193.579L13.2561 193.152C13.7005 194.811 14.3633 196.425 15.2451 197.952L17.3981 201.682L15.9702 202.506L13.8171 198.777C12.8626 197.123 12.1447 195.375 11.6634 193.579ZM20.2762 209.964L21.7042 209.14L26.0102 216.598L24.5823 217.423L20.2762 209.964ZM28.8883 224.881L30.3163 224.057L34.6224 231.515L33.1944 232.339L28.8883 224.881ZM37.5004 239.798L38.9284 238.973L43.2345 246.431L41.8065 247.256L37.5004 239.798ZM46.1125 254.714L47.5405 253.89L51.8466 261.348L50.4186 262.172L46.1125 254.714ZM54.7247 269.631L56.1526 268.806L60.4587 276.265L59.0307 277.089L54.7247 269.631ZM63.3368 284.547L64.7648 283.723L69.0708 291.181L67.6428 292.006L63.3368 284.547ZM71.9489 299.464L73.3769 298.64L77.6829 306.098L76.2549 306.922L71.9489 299.464ZM80.561 314.381L81.989 313.556L86.295 321.015L84.8671 321.839L80.561 314.381ZM89.1731 329.297L90.6011 328.473L94.9072 335.931L93.4792 336.756L89.1731 329.297ZM97.7852 344.214L99.2132 343.389L103.519 350.848L102.091 351.672L97.7852 344.214ZM106.397 359.131L107.825 358.306L109.978 362.035C110.86 363.562 111.927 364.944 113.141 366.158L111.975 367.324C110.66 366.009 109.505 364.513 108.55 362.86L106.397 359.131ZM312.377 373.637L312.377 371.988L316.683 371.988C318.447 371.988 320.176 371.755 321.835 371.31L322.262 372.903C320.465 373.384 318.592 373.637 316.683 373.637L312.377 373.637ZM331.924 367.324L330.758 366.158C331.973 364.944 333.04 363.563 333.921 362.035L336.074 358.306L337.502 359.131L335.349 362.86C334.395 364.513 333.239 366.009 331.924 367.324ZM341.808 351.672L340.38 350.848L344.687 343.389L346.114 344.214L341.808 351.672ZM350.421 336.756L348.993 335.931L353.299 328.473L354.727 329.297L350.421 336.756ZM359.033 321.839L357.605 321.015L361.911 313.556L363.339 314.381L359.033 321.839ZM367.645 306.922L366.217 306.098L370.523 298.64L371.951 299.464L367.645 306.922ZM376.257 292.006L374.829 291.181L379.135 283.723L380.563 284.547L376.257 292.006ZM384.869 277.089L383.441 276.265L387.747 268.806L389.175 269.631L384.869 277.089ZM393.481 262.173L392.053 261.348L396.359 253.89L397.787 254.714L393.481 262.173ZM402.093 247.256L406.399 239.798L404.971 238.973L400.665 246.431L402.093 247.256ZM410.705 232.339L415.011 224.881L413.583 224.057L409.277 231.515L410.705 232.339ZM419.317 217.423L423.624 209.964L422.196 209.14L417.889 216.598L419.317 217.423ZM427.93 202.506L426.502 201.682L428.655 197.952C429.536 196.425 430.199 194.811 430.644 193.152L432.236 193.579C431.755 195.375 431.037 197.123 430.083 198.777L427.93 202.506ZM432.236 182.421L430.644 182.848C430.199 181.189 429.536 179.575 428.655 178.047L426.502 174.318L427.93 173.494L430.083 177.223C431.037 178.876 431.755 180.625 432.236 182.421ZM423.624 166.035L419.317 158.577L417.889 159.402L422.196 166.86L423.624 166.035ZM415.011 151.119L410.705 143.661L409.277 144.485L413.583 151.943L415.011 151.119ZM406.399 136.202L402.093 128.744L400.665 129.568L404.971 137.027L406.399 136.202ZM397.787 121.286L396.359 122.11L392.053 114.652L393.481 113.827L397.787 121.286ZM389.175 106.369L387.747 107.193L383.441 99.7351L384.869 98.9107L389.175 106.369ZM380.563 91.4524L379.135 92.2768L374.829 84.8185L376.257 83.9941L380.563 91.4524ZM371.951 76.5358L370.523 77.3602L366.217 69.9019L367.645 69.0774L371.951 76.5358ZM363.339 61.6191L361.911 62.4436L357.605 54.9853L359.033 54.1608L363.339 61.6191ZM354.727 46.7025L353.299 47.527L348.993 40.0686L350.421 39.2442L354.727 46.7025ZM346.114 31.7859L344.687 32.6103L340.38 25.152L341.808 24.3276L346.114 31.7859ZM337.502 16.8693L335.349 13.1401C334.395 11.4867 333.239 9.99078 331.924 8.67578L330.758 9.84178C331.973 11.0559 333.04 12.4373 333.921 13.9646L336.074 17.6937L337.502 16.8693ZM303.765 373.637L303.765 371.988L295.153 371.988L295.153 373.637L303.765 373.637ZM286.541 373.637L286.541 371.988L277.929 371.988L277.929 373.637L286.541 373.637ZM269.316 373.637L269.316 371.988L260.704 371.988L260.704 373.637L269.316 373.637ZM252.092 373.637L252.092 371.988L243.48 371.988L243.48 373.637L252.092 373.637ZM234.868 373.637L234.868 371.988L226.256 371.988L226.256 373.637L234.868 373.637ZM217.644 373.637L217.644 371.988L209.032 371.988L209.032 373.637L217.644 373.637ZM200.42 373.637L200.42 371.988L191.807 371.988L191.807 373.637L200.42 373.637ZM183.195 373.637L183.195 371.988L174.583 371.988L174.583 373.637L183.195 373.637ZM165.971 373.637L165.971 371.988L157.359 371.988L157.359 373.637L165.971 373.637ZM148.747 373.637L148.747 371.988L140.135 371.988L140.135 373.637L148.747 373.637ZM131.523 373.637L131.523 371.988L127.217 371.988C125.453 371.988 123.723 371.755 122.065 371.31L121.638 372.903C123.434 373.384 125.307 373.637 127.217 373.637L131.523 373.637ZM140.135 2.36315L140.135 4.01203L148.747 4.01203L148.747 2.36315L140.135 2.36315ZM157.359 2.36315L157.359 4.01203L165.971 4.01203L165.971 2.36315L157.359 2.36315ZM174.583 2.36315L174.583 4.01203L183.195 4.01203L183.195 2.36315L174.583 2.36315ZM191.807 2.36315L191.807 4.01203L200.42 4.01203L200.42 2.36315L191.807 2.36315ZM209.032 2.36315L209.032 4.01203L217.644 4.01203L217.644 2.36315L209.032 2.36315ZM226.256 2.36315L226.256 4.01203L234.868 4.01203L234.868 2.36315L226.256 2.36315ZM243.48 2.36315L243.48 4.01203L252.092 4.01203L252.092 2.36315L243.48 2.36315ZM260.704 2.36315L260.704 4.01204L269.316 4.01204L269.316 2.36315L260.704 2.36315ZM277.929 2.36315L277.929 4.01204L286.541 4.01204L286.541 2.36315L277.929 2.36315ZM295.153 2.36315L295.153 4.01204L303.765 4.01204L303.765 2.36315L295.153 2.36315Z" fill="#376593">
	</path>
	<path opacity="0.35" d="M404.264 178.196C407.766 184.263 407.766 191.737 404.264 197.804L321.598 340.985C318.095 347.052 311.622 350.789 304.617 350.789L139.285 350.789C132.28 350.789 125.807 347.052 122.304 340.985L39.6387 197.804C36.1361 191.737 36.1361 184.263 39.6387 178.196L122.305 35.0147C125.807 28.948 132.28 25.2108 139.285 25.2108L304.617 25.2108C311.622 25.2108 318.095 28.948 321.598 35.0147L404.264 178.196Z" fill="url(#paint0_linear_3517_29396)">
	</path>
	<path d="M275.356 91.3508L302.211 118.033C303.911 119.723 304.867 122.021 304.867 124.418V272.864C304.867 277.834 300.838 281.864 295.867 281.864H152.211C147.24 281.864 143.211 277.834 143.211 272.864V97.7352C143.211 92.7647 147.24 88.7352 152.211 88.7352H269.013C271.389 88.7352 273.67 89.6755 275.356 91.3508Z" fill="url(#paint1_linear_3517_29396)" stroke="#90B0D5" stroke-width="2">
	</path>
	<path d="M190.743 222.657L172.121 188.516C171.958 188.217 171.958 187.857 172.121 187.558L190.743 153.417" stroke="#343FF5" stroke-width="2.5" stroke-miterlimit="5">
	</path>
	<path d="M253.688 222.657L272.31 188.516C272.473 188.217 272.473 187.857 272.31 187.558L253.688 153.417" stroke="#343FF5" stroke-width="2.5" stroke-miterlimit="5">
	</path>
	<path d="M228.511 140.829L215.922 235.246" stroke="#343FF5" stroke-width="2.5" stroke-miterlimit="5">
	</path>
	<path d="M327.479 186.901L416.518 186.901" stroke="#343FF5" stroke-width="1.5">
	</path>
	<circle opacity="0.1" cx="306.043" cy="187.45" r="15.9392" fill="#343FF5">
	</circle>
	<circle opacity="0.1" cx="142.254" cy="187.45" r="15.9392" fill="#343FF5">
	</circle>
	<circle cx="306.043" cy="187.45" r="8.59367" fill="#E7F0FB" stroke="#7D92CA" stroke-width="1.5">
	</circle>
	<circle cx="306.043" cy="187.45" r="2.74814" fill="#343FF5">
	</circle>
	<circle cx="432.457" cy="187.45" r="2.74814" fill="#343FF5">
	</circle>
	<circle cx="328.029" cy="6.07309" r="2.74814" fill="#343FF5">
	</circle>
	<circle cx="328.029" cy="371.026" r="2.74814" fill="#343FF5">
	</circle>
	<circle opacity="0.1" cx="432.458" cy="187.45" r="11.5422" fill="#343FF5">
	</circle>
	<circle opacity="0.1" cx="12.5422" cy="187.45" r="11.5422" fill="#343FF5">
	</circle>
	<circle cx="116.971" cy="371.026" r="2.74814" fill="#343FF5">
	</circle>
	<circle cx="116.971" cy="6.07309" r="2.74814" fill="#343FF5">
	</circle>
	<path d="M120.818 186.901H28.4809" stroke="#343FF5" stroke-width="1.5">
	</path>
	<circle r="8.59367" transform="matrix(-1 0 0 1 142.254 187.45)" fill="#E7F0FB" stroke="#7D92CA" stroke-width="1.5">
	</circle>
	<circle r="2.74814" transform="matrix(-1 0 0 1 142.254 187.45)" fill="#343FF5">
	</circle>
	<circle r="2.74814" transform="matrix(-1 0 0 1 12.5409 187.45)" fill="#343FF5">
	</circle>
	<circle cx="147.049" cy="93.3115" r="14.4393" fill="#092354" stroke="#ECF3FB" stroke-width="5">
	</circle>
	<path d="M150.721 89.637L152.099 91.0146L145.679 97.4434L141.537 93.3106L142.915 91.933L145.679 94.6882L150.721 89.637Z" fill="white">
	</path>
	<path d="M268.12 97.861L268.12 118.442C268.12 122.86 271.702 126.442 276.12 126.442L294.502 126.442" stroke="#90B0D5" stroke-width="2">
	</path>
	<defs>
		<linearGradient id="paint0_linear_3517_29396" x1="409.924" y1="188" x2="33.9784" y2="188" gradientUnits="userSpaceOnUse">
			<stop stop-color="white">
			</stop>
			<stop offset="1" stop-color="white" stop-opacity="0">
			</stop>
		</linearGradient>
		<linearGradient id="paint1_linear_3517_29396" x1="301.387" y1="89.5292" x2="140.908" y2="193.414" gradientUnits="userSpaceOnUse">
			<stop stop-color="#BDCEEE" stop-opacity="0.8">
			</stop>
			<stop offset="1" stop-color="#C2D2F0" stop-opacity="0.3">
			</stop>
		</linearGradient>
	</defs>
</svg>
