<svg viewBox="0 0 444 378" fill="none" xmlns="http://www.w3.org/2000/svg" class="w-full"><rect x="-4.47035e-08" y="0.75" width="333.626" height="181.243" rx="9.25" transform="matrix(0.866025 0.5 -0.866025 0.5 156.173 120.062)" fill="url(#paint0_linear_3517_28810)" fill-opacity="0.1" stroke="#B5C7EA" stroke-width="1.5"></rect> <rect x="-4.47035e-08" y="0.75" width="335.776" height="183.003" rx="9.25" transform="matrix(0.866025 0.5 -0.866025 0.5 156.523 59.0283)" fill="url(#paint1_linear_3517_28810)" stroke="#AFC5DE" stroke-width="1.5"></rect> <path d="M210.323 121.231C209.48 121.718 208.113 121.718 207.27 121.231C206.427 120.745 206.427 119.955 207.27 119.469C208.113 118.982 209.48 118.982 210.323 119.469C211.166 119.955 211.166 120.745 210.323 121.231Z" fill="#5486BD"></path> <path d="M289.706 167.063C288.863 167.55 287.496 167.55 286.653 167.063C285.81 166.576 285.81 165.787 286.653 165.3C287.496 164.814 288.863 164.814 289.706 165.3C290.549 165.787 290.549 166.576 289.706 167.063Z" fill="#5486BD"></path> <path d="M369.089 212.895C368.246 213.382 366.879 213.382 366.036 212.895C365.193 212.408 365.193 211.619 366.036 211.132C366.879 210.646 368.246 210.646 369.089 211.132C369.933 211.619 369.933 212.408 369.089 212.895Z" fill="#5486BD"></path> <path d="M157.401 90.6767C156.558 91.1635 155.191 91.1635 154.348 90.6767C153.504 90.1899 153.504 89.4007 154.348 88.9139C155.191 88.4271 156.558 88.4271 157.401 88.9139C158.244 89.4007 158.244 90.1899 157.401 90.6767Z" fill="#5486BD"></path> <path d="M236.784 136.509C235.941 136.995 234.574 136.995 233.731 136.509C232.888 136.022 232.888 135.233 233.731 134.746C234.574 134.259 235.941 134.259 236.784 134.746C237.627 135.233 237.627 136.022 236.784 136.509Z" fill="#5486BD"></path> <path d="M316.167 182.341C315.324 182.827 313.957 182.827 313.114 182.341C312.271 181.854 312.271 181.065 313.114 180.578C313.957 180.091 315.324 180.091 316.167 180.578C317.01 181.065 317.01 181.854 316.167 182.341Z" fill="#5486BD"></path> <path d="M395.55 228.172C394.707 228.659 393.34 228.659 392.497 228.172C391.654 227.686 391.654 226.896 392.497 226.41C393.34 225.923 394.707 225.923 395.55 226.41C396.394 226.896 396.394 227.686 395.55 228.172Z" fill="#5486BD"></path> <path d="M183.862 105.954C183.019 106.441 181.652 106.441 180.809 105.954C179.966 105.467 179.966 104.678 180.809 104.191C181.652 103.704 183.019 103.704 183.862 104.191C184.705 104.678 184.705 105.467 183.862 105.954Z" fill="#5486BD"></path> <path d="M263.245 151.786C262.402 152.273 261.035 152.273 260.192 151.786C259.349 151.299 259.349 150.51 260.192 150.023C261.035 149.536 262.402 149.536 263.245 150.023C264.088 150.51 264.088 151.299 263.245 151.786Z" fill="#5486BD"></path> <path d="M342.628 197.618C341.785 198.105 340.418 198.105 339.575 197.618C338.732 197.131 338.732 196.342 339.575 195.855C340.418 195.368 341.785 195.368 342.628 195.855C343.471 196.342 343.471 197.131 342.628 197.618Z" fill="#5486BD"></path> <path d="M183.862 136.509C183.018 136.995 181.652 136.995 180.808 136.509C179.965 136.022 179.965 135.233 180.808 134.746C181.652 134.259 183.018 134.259 183.862 134.746C184.705 135.233 184.705 136.022 183.862 136.509Z" fill="#5486BD"></path> <path d="M263.245 182.341C262.402 182.827 261.035 182.827 260.192 182.341C259.349 181.854 259.348 181.065 260.192 180.578C261.035 180.091 262.402 180.091 263.245 180.578C264.088 181.065 264.088 181.854 263.245 182.341Z" fill="#5486BD"></path> <path d="M342.628 228.173C341.785 228.659 340.418 228.659 339.575 228.173C338.732 227.686 338.732 226.897 339.575 226.41C340.418 225.923 341.785 225.923 342.628 226.41C343.471 226.897 343.471 227.686 342.628 228.173Z" fill="#5486BD"></path> <path d="M130.939 105.954C130.096 106.441 128.729 106.441 127.886 105.954C127.043 105.467 127.043 104.678 127.886 104.191C128.729 103.705 130.096 103.705 130.939 104.191C131.783 104.678 131.783 105.467 130.939 105.954Z" fill="#5486BD"></path> <path d="M210.323 151.786C209.48 152.273 208.113 152.273 207.269 151.786C206.426 151.299 206.426 150.51 207.269 150.023C208.113 149.536 209.48 149.536 210.323 150.023C211.166 150.51 211.166 151.299 210.323 151.786Z" fill="#5486BD"></path> <path d="M289.706 197.618C288.863 198.105 287.496 198.105 286.653 197.618C285.81 197.131 285.81 196.342 286.653 195.855C287.496 195.368 288.863 195.368 289.706 195.855C290.549 196.342 290.549 197.131 289.706 197.618Z" fill="#5486BD"></path> <path d="M369.089 243.45C368.246 243.937 366.879 243.937 366.036 243.45C365.193 242.963 365.193 242.174 366.036 241.687C366.879 241.2 368.246 241.2 369.089 241.687C369.932 242.174 369.932 242.963 369.089 243.45Z" fill="#5486BD"></path> <path d="M157.401 121.231C156.557 121.718 155.19 121.718 154.347 121.231C153.504 120.745 153.504 119.955 154.347 119.469C155.19 118.982 156.557 118.982 157.401 119.469C158.244 119.955 158.244 120.745 157.401 121.231Z" fill="#5486BD"></path> <path d="M236.784 167.063C235.941 167.55 234.574 167.55 233.731 167.063C232.887 166.577 232.887 165.787 233.731 165.301C234.574 164.814 235.941 164.814 236.784 165.301C237.627 165.787 237.627 166.577 236.784 167.063Z" fill="#5486BD"></path> <path d="M316.167 212.895C315.324 213.382 313.957 213.382 313.114 212.895C312.271 212.408 312.271 211.619 313.114 211.132C313.957 210.646 315.324 210.646 316.167 211.132C317.01 211.619 317.01 212.408 316.167 212.895Z" fill="#5486BD"></path> <path d="M157.4 151.786C156.557 152.273 155.19 152.273 154.347 151.786C153.504 151.299 153.504 150.51 154.347 150.023C155.19 149.537 156.557 149.537 157.4 150.023C158.243 150.51 158.243 151.299 157.4 151.786Z" fill="#5486BD"></path> <path d="M236.783 197.618C235.94 198.105 234.573 198.105 233.73 197.618C232.887 197.131 232.887 196.342 233.73 195.855C234.573 195.368 235.94 195.368 236.783 195.855C237.627 196.342 237.627 197.131 236.783 197.618Z" fill="#5486BD"></path> <path d="M316.167 243.45C315.324 243.937 313.957 243.937 313.114 243.45C312.27 242.963 312.27 242.174 313.114 241.687C313.957 241.2 315.324 241.2 316.167 241.687C317.01 242.174 317.01 242.963 316.167 243.45Z" fill="#5486BD"></path> <path d="M104.478 121.231C103.635 121.718 102.268 121.718 101.425 121.231C100.582 120.745 100.582 119.955 101.425 119.469C102.268 118.982 103.635 118.982 104.478 119.469C105.321 119.955 105.321 120.745 104.478 121.231Z" fill="#5486BD"></path> <path d="M183.861 167.063C183.018 167.55 181.651 167.55 180.808 167.063C179.965 166.577 179.965 165.787 180.808 165.301C181.651 164.814 183.018 164.814 183.861 165.301C184.704 165.787 184.704 166.577 183.861 167.063Z" fill="#5486BD"></path> <path d="M263.245 212.895C262.401 213.382 261.035 213.382 260.191 212.895C259.348 212.409 259.348 211.619 260.191 211.133C261.035 210.646 262.401 210.646 263.245 211.133C264.088 211.619 264.088 212.409 263.245 212.895Z" fill="#5486BD"></path> <path d="M342.628 258.727C341.785 259.214 340.418 259.214 339.575 258.727C338.731 258.241 338.731 257.451 339.575 256.965C340.418 256.478 341.785 256.478 342.628 256.965C343.471 257.451 343.471 258.241 342.628 258.727Z" fill="#5486BD"></path> <path d="M130.939 136.509C130.096 136.996 128.729 136.996 127.886 136.509C127.043 136.022 127.043 135.233 127.886 134.746C128.729 134.259 130.096 134.259 130.939 134.746C131.782 135.233 131.782 136.022 130.939 136.509Z" fill="#5486BD"></path> <path d="M210.322 182.341C209.479 182.828 208.112 182.828 207.269 182.341C206.426 181.854 206.426 181.065 207.269 180.578C208.112 180.091 209.479 180.091 210.322 180.578C211.166 181.065 211.166 181.854 210.322 182.341Z" fill="#5486BD"></path> <path d="M289.706 228.173C288.863 228.659 287.496 228.659 286.652 228.173C285.809 227.686 285.809 226.897 286.652 226.41C287.496 225.923 288.863 225.923 289.706 226.41C290.549 226.897 290.549 227.686 289.706 228.173Z" fill="#5486BD"></path> <path d="M130.94 167.064C130.097 167.55 128.73 167.55 127.887 167.064C127.043 166.577 127.043 165.788 127.887 165.301C128.73 164.814 130.097 164.814 130.94 165.301C131.783 165.788 131.783 166.577 130.94 167.064Z" fill="#5486BD"></path> <path d="M210.323 212.895C209.48 213.382 208.113 213.382 207.27 212.895C206.427 212.409 206.427 211.619 207.27 211.133C208.113 210.646 209.48 210.646 210.323 211.133C211.166 211.619 211.166 212.409 210.323 212.895Z" fill="#5486BD"></path> <path d="M289.706 258.727C288.863 259.214 287.496 259.214 286.653 258.727C285.81 258.241 285.81 257.451 286.653 256.965C287.496 256.478 288.863 256.478 289.706 256.965C290.549 257.451 290.549 258.241 289.706 258.727Z" fill="#5486BD"></path> <path d="M78.0176 136.509C77.1745 136.996 75.8075 136.996 74.9644 136.509C74.1213 136.022 74.1213 135.233 74.9644 134.746C75.8075 134.259 77.1745 134.259 78.0176 134.746C78.8607 135.233 78.8607 136.022 78.0176 136.509Z" fill="#5486BD"></path> <path d="M157.401 182.341C156.558 182.828 155.191 182.828 154.348 182.341C153.504 181.854 153.504 181.065 154.348 180.578C155.191 180.091 156.558 180.091 157.401 180.578C158.244 181.065 158.244 181.854 157.401 182.341Z" fill="#5486BD"></path> <path d="M236.784 228.173C235.941 228.66 234.574 228.66 233.731 228.173C232.888 227.686 232.888 226.897 233.731 226.41C234.574 225.923 235.941 225.923 236.784 226.41C237.627 226.897 237.627 227.686 236.784 228.173Z" fill="#5486BD"></path> <path d="M316.167 274.005C315.324 274.491 313.957 274.491 313.114 274.005C312.271 273.518 312.271 272.729 313.114 272.242C313.957 271.755 315.324 271.755 316.167 272.242C317.01 272.729 317.01 273.518 316.167 274.005Z" fill="#5486BD"></path> <path d="M104.479 151.786C103.636 152.273 102.269 152.273 101.425 151.786C100.582 151.299 100.582 150.51 101.425 150.023C102.269 149.537 103.636 149.537 104.479 150.023C105.322 150.51 105.322 151.299 104.479 151.786Z" fill="#5486BD"></path> <path d="M183.862 197.618C183.019 198.105 181.652 198.105 180.809 197.618C179.966 197.131 179.966 196.342 180.809 195.855C181.652 195.369 183.019 195.369 183.862 195.855C184.705 196.342 184.705 197.131 183.862 197.618Z" fill="#5486BD"></path> <path d="M263.245 243.45C262.402 243.937 261.035 243.937 260.192 243.45C259.349 242.963 259.349 242.174 260.192 241.687C261.035 241.201 262.402 241.201 263.245 241.687C264.088 242.174 264.088 242.963 263.245 243.45Z" fill="#5486BD"></path> <path d="M104.479 182.341C103.636 182.828 102.269 182.828 101.426 182.341C100.582 181.854 100.582 181.065 101.426 180.578C102.269 180.091 103.636 180.091 104.479 180.578C105.322 181.065 105.322 181.854 104.479 182.341Z" fill="#5486BD"></path> <path d="M183.862 228.173C183.019 228.66 181.652 228.66 180.809 228.173C179.966 227.686 179.966 226.897 180.809 226.41C181.652 225.923 183.019 225.923 183.862 226.41C184.705 226.897 184.705 227.686 183.862 228.173Z" fill="#5486BD"></path> <path d="M263.245 274.005C262.402 274.492 261.035 274.492 260.192 274.005C259.349 273.518 259.349 272.729 260.192 272.242C261.035 271.755 262.402 271.755 263.245 272.242C264.088 272.729 264.088 273.518 263.245 274.005Z" fill="#5486BD"></path> <path d="M51.5566 151.786C50.7135 152.273 49.3466 152.273 48.5034 151.786C47.6603 151.3 47.6603 150.51 48.5034 150.024C49.3466 149.537 50.7135 149.537 51.5566 150.024C52.3998 150.51 52.3998 151.3 51.5566 151.786Z" fill="#5486BD"></path> <path d="M130.94 197.618C130.097 198.105 128.73 198.105 127.887 197.618C127.044 197.131 127.044 196.342 127.887 195.855C128.73 195.369 130.097 195.369 130.94 195.855C131.783 196.342 131.783 197.131 130.94 197.618Z" fill="#5486BD"></path> <path d="M210.323 243.45C209.48 243.937 208.113 243.937 207.27 243.45C206.427 242.963 206.427 242.174 207.27 241.687C208.113 241.201 209.48 241.201 210.323 241.687C211.166 242.174 211.166 242.963 210.323 243.45Z" fill="#5486BD"></path> <path d="M289.706 289.282C288.863 289.769 287.496 289.769 286.653 289.282C285.81 288.795 285.81 288.006 286.653 287.519C287.496 287.033 288.863 287.033 289.706 287.519C290.549 288.006 290.549 288.795 289.706 289.282Z" fill="#5486BD"></path> <path d="M78.0177 167.064C77.1746 167.55 75.8076 167.55 74.9645 167.064C74.1214 166.577 74.1214 165.788 74.9645 165.301C75.8076 164.814 77.1746 164.814 78.0177 165.301C78.8608 165.788 78.8608 166.577 78.0177 167.064Z" fill="#5486BD"></path> <path d="M157.401 212.896C156.558 213.382 155.191 213.382 154.348 212.896C153.505 212.409 153.505 211.62 154.348 211.133C155.191 210.646 156.558 210.646 157.401 211.133C158.244 211.62 158.244 212.409 157.401 212.896Z" fill="#5486BD"></path> <path d="M236.784 258.727C235.941 259.214 234.574 259.214 233.731 258.727C232.888 258.241 232.888 257.451 233.731 256.965C234.574 256.478 235.941 256.478 236.784 256.965C237.627 257.451 237.627 258.241 236.784 258.727Z" fill="#5486BD"></path> <circle cx="369.499" cy="114.612" r="19.839" fill="#E5EFFB" stroke="#676F78" stroke-width="1.5"></circle> <line x1="369.75" y1="134.023" x2="369.75" y2="201.023" stroke="url(#paint2_linear_3517_28810)" stroke-width="1.5"></line> <g clip-path="url(#clip0_3517_28810)"><path d="M374.859 110.785C374.477 110.558 373.984 110.558 373.547 110.785L370.484 112.657L368.406 113.848L365.398 115.719C365.016 115.946 364.523 115.946 364.086 115.719L361.734 114.245C361.352 114.018 361.078 113.564 361.078 113.054V110.218C361.078 109.764 361.297 109.311 361.734 109.027L364.086 107.609C364.469 107.382 364.961 107.382 365.398 107.609L367.75 109.084C368.133 109.311 368.406 109.764 368.406 110.275V112.146L370.484 110.899V108.97C370.484 108.516 370.266 108.063 369.828 107.779L365.453 105.114C365.07 104.887 364.578 104.887 364.141 105.114L359.656 107.836C359.219 108.063 359 108.516 359 108.97V114.302C359 114.755 359.219 115.209 359.656 115.493L364.086 118.158C364.469 118.385 364.961 118.385 365.398 118.158L368.406 116.343L370.484 115.096L373.492 113.281C373.875 113.054 374.367 113.054 374.805 113.281L377.156 114.699C377.539 114.925 377.812 115.379 377.812 115.89V118.725C377.812 119.179 377.594 119.633 377.156 119.916L374.859 121.334C374.477 121.561 373.984 121.561 373.547 121.334L371.195 119.916C370.812 119.69 370.539 119.236 370.539 118.725V116.911L368.461 118.158V120.03C368.461 120.484 368.68 120.937 369.117 121.221L373.547 123.887C373.93 124.114 374.422 124.114 374.859 123.887L379.289 121.221C379.672 120.994 379.945 120.54 379.945 120.03V114.642C379.945 114.188 379.727 113.734 379.289 113.451L374.859 110.785Z" fill="#232325"></path></g> <path d="M295.955 261.987C292.05 264.242 285.719 264.242 281.814 261.987C277.909 259.732 277.909 256.077 281.814 253.823C285.719 251.568 292.05 251.568 295.955 253.823C299.861 256.077 299.861 259.733 295.955 261.987Z" fill="#232325" fill-opacity="0.2"></path> <path d="M291.59 259.466C290.096 260.329 287.674 260.329 286.18 259.466C284.686 258.604 284.686 257.205 286.18 256.343C287.674 255.48 290.096 255.48 291.59 256.343C293.084 257.205 293.084 258.604 291.59 259.466Z" fill="#232325"></path> <circle cx="290.589" cy="140.612" r="19.839" fill="#E5EFFB" stroke="#676F78" stroke-width="1.5"></circle> <line x1="289.75" y1="160.023" x2="289.75" y2="243.023" stroke="url(#paint3_linear_3517_28810)" stroke-width="1.5"></line> <path d="M241.955 169.987C238.05 172.242 231.719 172.242 227.814 169.987C223.909 167.732 223.909 164.077 227.814 161.823C231.719 159.568 238.05 159.568 241.955 161.823C245.861 164.077 245.861 167.733 241.955 169.987Z" fill="#414CFF" fill-opacity="0.2"></path> <path d="M237.59 167.466C236.096 168.329 233.674 168.329 232.18 167.466C230.686 166.604 230.686 165.205 232.18 164.343C233.674 163.48 236.096 163.48 237.59 164.343C239.084 165.205 239.084 166.604 237.59 167.466Z" fill="#414CFF"></path> <circle cx="236.5" cy="28.5234" r="27.5" fill="#414CFF" fill-opacity="0.1"></circle> <circle cx="236.589" cy="28.6124" r="19.839" fill="#E5EFFB" stroke="#6A8DB5" stroke-width="1.5"></circle> <path d="M228.667 21.7644C228.803 21.6023 228.948 21.4449 229.093 21.2891C229.099 21.2813 229.114 21.2797 229.121 21.2719C229.134 21.2564 229.155 21.247 229.169 21.2314L229.182 21.2158C229.282 21.127 229.391 21.0319 229.514 20.9478C229.952 20.633 230.406 20.3929 230.886 20.2355C232.423 19.7244 234.134 20.0392 235.476 21.2392C237.35 22.9037 237.182 25.5827 235.687 27.3641C233.796 30.0198 230.549 33.7243 235.045 37.0439C235.854 37.6408 236.453 38.1333 239 38.8299C237.333 39.1213 235.79 39.031 234.071 38.6148C232.855 37.9649 230.944 36.5732 230.292 34.6921C229.308 31.8401 232.023 27.5776 233.334 25.9365C235.136 23.6642 232.22 21.2049 230.075 23.951C228.953 25.3817 226.992 29.4322 227.673 32.4354C228.071 34.1388 228.603 35.381 230.71 37.086C230.32 36.8678 229.94 36.62 229.572 36.3426C224.677 32.0224 225.247 25.3443 228.667 21.7644Z" fill="#414CFF"></path> <path d="M244.539 35.2356C244.413 35.3977 244.28 35.5551 244.146 35.7109C244.14 35.7187 244.126 35.7203 244.12 35.7281C244.108 35.7436 244.088 35.753 244.076 35.7686L244.064 35.7842C243.971 35.873 243.871 35.9681 243.757 36.0522C243.353 36.367 242.933 36.6071 242.491 36.7645C241.072 37.2756 239.493 36.9608 238.254 35.7608C236.525 34.0963 236.679 31.4173 238.06 29.6359C239.805 26.9802 242.802 23.2757 238.65 19.9561C237.905 19.3592 237.351 18.8667 235 18.1701C236.538 17.8787 237.963 17.969 239.549 18.3852C240.672 19.0351 242.436 20.4283 243.037 22.3079C243.945 25.1599 241.44 29.4224 240.23 31.0635C238.567 33.3358 241.258 35.7951 243.238 33.049C244.273 31.6183 246.084 27.5678 245.455 24.5646C245.087 22.8612 244.597 21.619 242.652 19.914C243.012 20.1322 243.362 20.38 243.703 20.6574C248.22 24.976 247.696 31.6557 244.539 35.2356Z" fill="#414CFF"></path> <line x1="236.75" y1="49.0234" x2="236.75" y2="158.023" stroke="url(#paint4_linear_3517_28810)" stroke-width="1.5"></line> <circle cx="158.589" cy="71.6124" r="19.839" fill="#E5EFFB" stroke="#676F78" stroke-width="1.5"></circle> <path d="M158.997 59L158.836 59.5469V75.4161L158.997 75.5767L166.363 71.2225L158.997 59Z" fill="#232325"></path> <path d="M158.997 59L151.631 71.2226L158.997 75.5767V67.8743V59Z" fill="#4D4D4D"></path> <path d="M158.997 76.9713L158.906 77.082V82.7348L158.997 82.9997L166.368 72.6194L158.997 76.9713Z" fill="#232325"></path> <path d="M158.997 82.9997V76.9713L151.631 72.6194L158.997 82.9997Z" fill="#4D4D4D"></path> <path d="M158.998 75.5767L166.364 71.2225L158.998 67.8743V75.5767Z" fill="#141414"></path> <path d="M151.631 71.2225L158.997 75.5767V67.8743L151.631 71.2225Z" fill="#393939"></path> <line x1="157.75" y1="92.0234" x2="157.75" y2="203.023" stroke="url(#paint5_linear_3517_28810)" stroke-width="1.5"></line> <path d="M164.211 217.247C160.306 219.501 153.975 219.501 150.07 217.247C146.165 214.992 146.165 211.337 150.07 209.082C153.975 206.828 160.306 206.828 164.211 209.082C168.116 211.337 168.116 214.992 164.211 217.247Z" fill="#232325" fill-opacity="0.2"></path> <path d="M159.846 214.726C158.352 215.589 155.93 215.589 154.436 214.726C152.942 213.864 152.942 212.465 154.436 211.603C155.93 210.74 158.352 210.74 159.846 211.603C161.339 212.465 161.339 213.864 159.846 214.726Z" fill="#232325"></path> <circle cx="79.589" cy="38.6124" r="19.839" fill="#E5EFFB" stroke="#676F78" stroke-width="1.5"></circle> <path d="M81.8065 34.6007L75.6735 40.7332C75.6028 40.5737 75.5144 40.4142 75.4614 40.2547C75.2493 39.7052 75.1433 39.1026 75.1433 38.4823C75.1433 37.8619 75.2493 37.2593 75.4614 36.7099C75.6735 36.1604 75.974 35.6642 76.3451 35.2565C76.7163 34.8489 77.1758 34.5299 77.706 34.2817C78.2363 34.0513 78.8195 33.9272 79.4558 33.9272C80.0921 33.9272 80.6753 34.0513 81.2233 34.2994C81.4353 34.3703 81.6298 34.4767 81.8065 34.6007ZM81.2586 42.7183C80.7284 42.9487 80.1451 43.0728 79.5088 43.0728C78.8726 43.0728 78.2893 42.9487 77.7414 42.7006C77.547 42.6119 77.3526 42.5056 77.1758 42.3993L83.3088 36.2668C83.3795 36.4263 83.4679 36.5858 83.5209 36.7453C83.733 37.2948 83.8391 37.8974 83.8391 38.5177C83.8391 39.1381 83.733 39.7407 83.5209 40.2901C83.3088 40.8396 83.0084 41.3358 82.6372 41.7435C82.2484 42.1511 81.8065 42.4702 81.2586 42.7183ZM82.1953 44.6147C83.0084 44.2603 83.733 43.7817 84.334 43.1791C84.9349 42.5765 85.3944 41.8675 85.7302 41.0522C86.066 40.2369 86.2251 39.3862 86.2251 38.4823C86.2251 37.5784 86.066 36.7099 85.7302 35.9123C85.5358 35.4338 85.2884 34.9907 85.0056 34.583L89 30.5951L87.4093 29L83.4149 33.0056C83.0614 32.7575 82.6726 32.5448 82.2484 32.3675C81.4353 32.0131 80.5163 31.8358 79.5265 31.8358C78.5367 31.8358 77.6353 32.0131 76.8047 32.3675C75.9916 32.722 75.267 33.2006 74.666 33.8032C74.0651 34.4058 73.6056 35.1147 73.2698 35.93C72.934 36.7453 72.7749 37.5961 72.7749 38.5C72.7749 39.4039 72.934 40.2724 73.2698 41.07C73.4642 41.5485 73.7116 41.9916 73.9944 42.3993L70 46.4049L71.5907 48L75.5851 43.9944C75.9386 44.2425 76.3274 44.4552 76.7516 44.6325C77.5647 44.9869 78.4837 45.1642 79.4735 45.1642C80.4633 45.1465 81.3647 44.9692 82.1953 44.6147Z" fill="#232325"></path> <line x1="78.75" y1="58.0234" x2="78.75" y2="125.023" stroke="url(#paint6_linear_3517_28810)" stroke-width="1.5"></line> <g clip-path="url(#clip1_3517_28810)"><path d="M284.087 144.448C284.202 144.333 284.36 144.266 284.527 144.266H299.69C299.968 144.266 300.106 144.602 299.91 144.8L296.915 147.817C296.8 147.933 296.642 148 296.475 148H281.311C281.034 148 280.896 147.663 281.092 147.466L284.087 144.448Z" fill="#232325"></path> <path d="M284.085 133.183C284.205 133.067 284.362 133 284.525 133H299.688C299.966 133 300.104 133.337 299.908 133.534L296.913 136.551C296.798 136.667 296.64 136.734 296.473 136.734H281.31C281.032 136.734 280.894 136.397 281.09 136.2L284.085 133.183Z" fill="#232325"></path> <path d="M296.915 138.78C296.8 138.664 296.642 138.597 296.475 138.597H281.311C281.034 138.597 280.896 138.934 281.092 139.131L284.087 142.148C284.202 142.264 284.36 142.331 284.527 142.331H299.69C299.968 142.331 300.106 141.994 299.91 141.797L296.915 138.78Z" fill="#232325"></path></g> <path d="M376.211 215.247C372.306 217.501 365.975 217.501 362.07 215.247C358.165 212.992 358.165 209.337 362.07 207.082C365.975 204.828 372.306 204.828 376.211 207.082C380.116 209.337 380.116 212.992 376.211 215.247Z" fill="#232325" fill-opacity="0.2"></path> <path d="M371.846 212.726C370.352 213.589 367.93 213.589 366.436 212.726C364.942 211.864 364.942 210.465 366.436 209.603C367.93 208.74 370.352 208.74 371.846 209.603C373.339 210.465 373.339 211.864 371.846 212.726Z" fill="#232325"></path> <path d="M84.2114 139.247C80.3063 141.501 73.9749 141.501 70.0699 139.247C66.1648 136.992 66.1649 133.337 70.0699 131.082C73.975 128.828 80.3063 128.828 84.2113 131.082C88.1164 133.337 88.1164 136.992 84.2114 139.247Z" fill="#232325" fill-opacity="0.2"></path> <path d="M79.8455 136.726C78.3517 137.589 75.9296 137.589 74.4357 136.726C72.9418 135.864 72.9418 134.465 74.4357 133.603C75.9296 132.74 78.3517 132.74 79.8455 133.603C81.3394 134.465 81.3394 135.864 79.8455 136.726Z" fill="#232325"></path> <defs><linearGradient id="paint0_linear_3517_28810" x1="-3.43093" y1="4.10281" x2="215.426" y2="-94.2298" gradientUnits="userSpaceOnUse"><stop stop-color="white"></stop> <stop offset="1" stop-color="#2F37B1" stop-opacity="0.3"></stop></linearGradient> <linearGradient id="paint1_linear_3517_28810" x1="328.044" y1="1.69623" x2="171.118" y2="223.108" gradientUnits="userSpaceOnUse"><stop stop-color="#BDCEEE" stop-opacity="0.8"></stop> <stop offset="1" stop-color="#C2D2F0" stop-opacity="0.3"></stop></linearGradient> <linearGradient id="paint2_linear_3517_28810" x1="368" y1="134.023" x2="368" y2="198.819" gradientUnits="userSpaceOnUse"><stop stop-color="#676F78"></stop> <stop offset="1" stop-color="#676F78" stop-opacity="0"></stop></linearGradient> <linearGradient id="paint3_linear_3517_28810" x1="288" y1="160.023" x2="288" y2="240.293" gradientUnits="userSpaceOnUse"><stop stop-color="#676F78"></stop> <stop offset="1" stop-color="#676F78" stop-opacity="0"></stop></linearGradient> <linearGradient id="paint4_linear_3517_28810" x1="235" y1="49.0234" x2="235" y2="154.438" gradientUnits="userSpaceOnUse"><stop stop-color="#6A8DB5"></stop> <stop offset="1" stop-color="#6A8DB5" stop-opacity="0"></stop></linearGradient> <linearGradient id="paint5_linear_3517_28810" x1="156" y1="92.0234" x2="156" y2="199.372" gradientUnits="userSpaceOnUse"><stop stop-color="#676F78"></stop> <stop offset="1" stop-color="#676F78" stop-opacity="0"></stop></linearGradient> <linearGradient id="paint6_linear_3517_28810" x1="77" y1="58.0234" x2="77" y2="122.819" gradientUnits="userSpaceOnUse"><stop stop-color="#6A8DB5"></stop> <stop offset="1" stop-color="#6A8DB5" stop-opacity="0"></stop></linearGradient> <clipPath id="clip0_3517_28810"><rect width="21" height="19" fill="white" transform="translate(359 105)"></rect></clipPath> <clipPath id="clip1_3517_28810"><rect width="19" height="15" fill="white" transform="translate(281 133)"></rect></clipPath></defs></svg>