<svg viewBox="0 0 447 382" fill="none" xmlns="http://www.w3.org/2000/svg" class="w-full"><path opacity="0.35" fill-rule="evenodd" clip-rule="evenodd" d="M26.0168 337.963C26.0185 339.226 26.1441 340.459 26.382 341.65L24.911 341.944C24.6541 340.657 24.5186 339.326 24.5168 337.965L24.5113 333.95L26.0113 333.948L26.0168 337.963ZM25.9895 317.889L26.0004 325.918L24.5004 325.92L24.4895 317.891L25.9895 317.889ZM25.9678 301.829L25.9787 309.859L24.4787 309.861L24.4678 301.831L25.9678 301.829ZM25.946 285.769L25.9569 293.799L24.4569 293.801L24.446 285.771L25.946 285.769ZM25.9242 269.71L25.9351 277.74L24.4351 277.742L24.4242 269.712L25.9242 269.71ZM25.9024 253.65L25.9133 261.68L24.4133 261.682L24.4024 253.652L25.9024 253.65ZM25.8806 237.591L25.8915 245.62L24.3915 245.622L24.3806 237.593L25.8806 237.591ZM25.8588 221.531L25.8697 229.561L24.3697 229.563L24.3588 221.533L25.8588 221.531ZM25.837 205.471L25.8479 213.501L24.3479 213.503L24.337 205.473L25.837 205.471ZM25.8152 189.412L25.8261 197.441L24.3261 197.444L24.3153 189.414L25.8152 189.412ZM25.7935 173.352L25.8044 181.382L24.3044 181.384L24.2935 173.354L25.7935 173.352ZM25.7717 157.292L25.7826 165.322L24.2826 165.324L24.2717 157.294L25.7717 157.292ZM25.7499 141.233L25.7608 149.263L24.2608 149.265L24.2499 141.235L25.7499 141.233ZM25.7281 125.173L25.739 133.203L24.239 133.205L24.2281 125.175L25.7281 125.173ZM25.7063 109.114L25.7172 117.143L24.2172 117.145L24.2063 109.116L25.7063 109.114ZM25.6845 93.054L25.6954 101.084L24.1954 101.086L24.1845 93.056L25.6845 93.054ZM25.6627 76.9944L25.6736 85.0241L24.1736 85.0262L24.1627 76.9964L25.6627 76.9944ZM25.641 60.9347L25.6518 68.9645L24.1518 68.9666L24.141 60.9368L25.641 60.9347ZM25.6246 48.89L25.6301 52.9049L24.1301 52.907L24.1246 48.892C24.1228 47.5359 24.2537 46.2097 24.5054 44.9262L25.9773 45.2148C25.7443 46.4031 25.6229 47.632 25.6246 48.89ZM29.2177 348.452C30.6021 350.509 32.3811 352.279 34.4458 353.652L33.6151 354.901C31.3869 353.419 29.4673 351.51 27.9732 349.29L29.2177 348.452ZM33.9569 33.2149C31.908 34.5957 30.1451 36.3684 28.7755 38.4248L27.527 37.5933C29.0051 35.374 30.9074 33.4613 33.1186 31.971L33.9569 33.2149ZM41.2632 356.45C42.456 356.681 43.6895 356.8 44.9521 356.795L48.9667 356.779L48.9729 358.279L44.9583 358.295C43.5972 358.301 42.2661 358.173 40.9776 357.923L41.2632 356.45ZM44.4047 30.0068C43.1467 30.012 41.9186 30.1402 40.7315 30.3797L40.4348 28.9093C41.717 28.6506 43.0424 28.5124 44.3986 28.5068L48.4131 28.4903L48.4192 29.9903L44.4047 30.0068ZM56.996 356.746L65.0252 356.713L65.0314 358.213L57.0021 358.246L56.996 356.746ZM64.4773 29.9242L56.4483 29.9573L56.4421 28.4573L64.4711 28.4242L64.4773 29.9242ZM73.0544 356.679L81.0837 356.646L81.0898 358.146L73.0606 358.179L73.0544 356.679ZM80.5353 29.8581L72.5063 29.8912L72.5001 28.3912L80.5292 28.3581L80.5353 29.8581ZM89.1129 356.613L97.1421 356.58L97.1483 358.08L89.1191 358.113L89.1129 356.613ZM96.5934 29.792L88.5644 29.8251L88.5582 28.3251L96.5872 28.292L96.5934 29.792ZM105.171 356.547L113.201 356.514L113.207 358.014L105.178 358.047L105.171 356.547ZM112.651 29.7259L104.622 29.759L104.616 28.259L112.645 28.2259L112.651 29.7259ZM121.23 356.481L129.259 356.448L129.265 357.948L121.236 357.981L121.23 356.481ZM128.709 29.6598L120.68 29.6929L120.674 28.1929L128.703 28.1598L128.709 29.6598ZM137.288 356.415L145.317 356.382L145.324 357.882L137.294 357.915L137.288 356.415ZM144.768 29.5937L136.739 29.6268L136.732 28.1268L144.761 28.0937L144.768 29.5937ZM153.347 356.349L161.376 356.316L161.382 357.816L153.353 357.849L153.347 356.349ZM160.826 29.5276L152.797 29.5607L152.79 28.0607L160.819 28.0277L160.826 29.5276ZM169.405 356.283L177.434 356.25L177.441 357.75L169.411 357.783L169.405 356.283ZM176.884 29.4616L168.855 29.4946L168.848 27.9946L176.877 27.9616L176.884 29.4616ZM185.464 356.217L193.493 356.184L193.499 357.684L185.47 357.717L185.464 356.217ZM192.942 29.3955L184.913 29.4285L184.906 27.9285L192.935 27.8955L192.942 29.3955ZM201.522 356.151L209.551 356.118L209.558 357.618L201.528 357.651L201.522 356.151ZM209 29.3293L200.971 29.3624L200.964 27.8624L208.994 27.8294L209 29.3293ZM217.581 356.085L225.61 356.052L225.616 357.552L217.587 357.585L217.581 356.085ZM225.058 29.2633L217.029 29.2963L217.023 27.7963L225.052 27.7633L225.058 29.2633ZM233.639 356.018L241.668 355.985L241.674 357.485L233.645 357.518L233.639 356.018ZM241.116 29.1972L233.087 29.2302L233.081 27.7302L241.11 27.6972L241.116 29.1972ZM249.697 355.952L257.727 355.919L257.733 357.419L249.704 357.452L249.697 355.952ZM257.174 29.1311L249.145 29.1641L249.139 27.6641L257.168 27.6311L257.174 29.1311ZM265.756 355.886L273.785 355.853L273.791 357.353L265.762 357.386L265.756 355.886ZM273.232 29.065L265.203 29.098L265.197 27.598L273.226 27.565L273.232 29.065ZM281.814 355.82L289.844 355.787L289.85 357.287L281.821 357.32L281.814 355.82ZM289.29 28.9989L281.261 29.0319L281.255 27.5319L289.284 27.4989L289.29 28.9989ZM297.873 355.754L305.902 355.721L305.908 357.221L297.879 357.254L297.873 355.754ZM305.348 28.9328L297.319 28.9658L297.313 27.4659L305.342 27.4328L305.348 28.9328ZM313.931 355.688L321.961 355.655L321.967 357.155L313.938 357.188L313.931 355.688ZM321.406 28.8667L313.377 28.8997L313.371 27.3997L321.4 27.3667L321.406 28.8667ZM329.99 355.622L338.019 355.589L338.025 357.089L329.996 357.122L329.99 355.622ZM337.464 28.8006L329.435 28.8336L329.429 27.3336L337.458 27.3006L337.464 28.8006ZM346.048 355.556L354.077 355.523L354.084 357.023L346.054 357.056L346.048 355.556ZM353.522 28.7345L345.493 28.7675L345.487 27.2676L353.516 27.2345L353.522 28.7345ZM362.107 355.49L366.121 355.473C367.379 355.468 368.607 355.34 369.794 355.1L370.091 356.571C368.809 356.829 367.483 356.968 366.127 356.973L362.113 356.99L362.107 355.49ZM365.566 28.6849L361.551 28.7015L361.545 27.2015L365.559 27.1849C366.921 27.1794 368.252 27.3076 369.541 27.5575L369.255 29.03C368.062 28.7987 366.828 28.6797 365.566 28.6849ZM376.568 352.266C378.616 350.885 380.379 349.113 381.749 347.057L382.997 347.889C381.519 350.108 379.617 352.02 377.406 353.51L376.568 352.266ZM381.301 37.03C379.917 34.9725 378.138 33.2027 376.073 31.8292L376.904 30.5803C379.132 32.0625 381.052 33.9722 382.546 36.1928L381.301 37.03ZM384.548 340.269C384.781 339.081 384.903 337.852 384.901 336.594L384.897 332.528L386.397 332.526L386.401 336.593C386.403 337.948 386.272 339.274 386.02 340.558L384.548 340.269ZM384.888 324.395L384.878 316.262L386.378 316.261L386.388 324.393L384.888 324.395ZM384.869 308.13L384.86 299.997L386.36 299.995L386.369 308.128L384.869 308.13ZM384.851 291.864L384.842 283.731L386.342 283.729L386.351 291.862L384.851 291.864ZM384.832 275.598L384.823 267.466L386.323 267.464L386.332 275.597L384.832 275.598ZM384.814 259.333L384.805 251.2L386.305 251.198L386.314 259.331L384.814 259.333ZM384.796 243.067L384.791 239.001L386.291 238.999L386.296 243.066L384.796 243.067ZM384.501 47.521C384.5 46.2581 384.374 45.0252 384.136 43.8334L385.607 43.5401C385.864 44.8274 385.999 46.158 386.001 47.5193L386.006 51.6435L384.506 51.6452L384.501 47.521ZM384.614 146.501L384.609 142.377L386.109 142.375L386.114 146.499L384.614 146.501ZM384.6 134.128L384.59 125.88L386.09 125.878L386.1 134.127L384.6 134.128ZM384.581 117.632L384.571 109.383L386.071 109.382L386.081 117.63L384.581 117.632ZM384.562 101.135L384.553 92.8868L386.053 92.8851L386.062 101.133L384.562 101.135ZM384.543 84.6385L384.534 76.3902L386.034 76.3884L386.043 84.6368L384.543 84.6385ZM384.524 68.1418L384.515 59.8935L386.015 59.8918L386.024 68.1401L384.524 68.1418Z" fill="#376593"></path> <path opacity="0.8" d="M332.074 289.19C340.373 289.226 347.124 282.516 347.138 274.217L347.427 112.264C347.442 103.995 340.761 97.273 332.492 97.2375L62.5712 96.078C54.2722 96.0424 47.5215 102.752 47.5067 111.051L47.2181 273.004C47.2033 281.274 53.8842 287.995 62.1536 288.031L332.074 289.19Z" fill="url(#paint0_linear_3517_29424)"></path> <path d="M325.338 223.374H444.683C444.666 223.429 444.647 223.486 444.627 223.544C444.343 224.394 443.897 225.517 443.25 226.632C441.939 228.889 439.941 230.894 436.951 230.894H333.049C330.147 230.894 328.148 228.896 326.81 226.626C326.151 225.509 325.689 224.383 325.392 223.532C325.373 223.478 325.355 223.425 325.338 223.374Z" fill="url(#paint1_linear_3517_29424)" stroke="#90B0D5" stroke-width="2"></path> <circle cx="383.92" cy="25.7348" r="23.2348" fill="#343FF5" stroke="#ECF3FB" stroke-width="5"></circle> <path d="M375.135 22.769H392.771L383.953 17.519L375.135 22.769Z" stroke="white" stroke-width="1.7" stroke-linecap="round" stroke-linejoin="round"></path> <path d="M377.848 22.769V29.3316" stroke="white" stroke-width="1.7" stroke-linecap="round" stroke-linejoin="round"></path> <path d="M381.918 22.769V29.3316" stroke="white" stroke-width="1.7" stroke-linecap="round" stroke-linejoin="round"></path> <path d="M385.986 22.769V29.3316" stroke="white" stroke-width="1.7" stroke-linecap="round" stroke-linejoin="round"></path> <path d="M390.057 22.769V29.3316" stroke="white" stroke-width="1.7" stroke-linecap="round" stroke-linejoin="round"></path> <path d="M375.812 29.3316H392.092" stroke="white" stroke-width="1.7" stroke-linecap="round" stroke-linejoin="round"></path> <path d="M374.457 31.9566H393.45" stroke="white" stroke-width="1.7" stroke-linecap="round" stroke-linejoin="round"></path> <circle cx="25.7348" cy="25.7348" r="23.2348" fill="#AEBFDA" stroke="#ECF3FB" stroke-width="5"></circle> <path d="M30.3892 27.1524C30.3892 25.0373 30.3892 25.7216 30.3892 23.8553C30.327 18.5053 25.6924 18.8786 25.6924 18.8786H25.5991C25.5991 18.8786 20.9646 18.5053 20.9023 23.8553C20.9023 25.7216 20.9023 25.0373 20.9023 27.1524" stroke="white" stroke-width="1.5" stroke-miterlimit="10" stroke-linecap="round" stroke-linejoin="round"></path> <path d="M28.7712 23.0468H26.9672L26.1896 21.4916L25.2564 23.0468H22.457" stroke="white" stroke-width="1.5" stroke-miterlimit="10" stroke-linecap="round" stroke-linejoin="round"></path> <path d="M34.7737 25.6284C34.7737 30.6673 30.668 34.773 25.6291 34.773C20.5901 34.773 16.4844 30.6673 16.4844 25.6284C16.4844 20.5894 20.5901 16.4837 25.6291 16.4837C30.668 16.5148 34.7737 20.5894 34.7737 25.6284Z" stroke="white" stroke-width="1.5" stroke-miterlimit="10"></path> <path d="M23.7938 27.1527C23.7938 27.6193 23.7938 28.8324 23.7938 28.8324C23.7938 28.8324 23.8871 29.4544 20.2168 30.3876" stroke="white" stroke-width="1.5" stroke-miterlimit="10" stroke-linecap="round" stroke-linejoin="round"></path> <path d="M27.4631 27.1524C27.4631 27.6189 27.4631 28.832 27.4631 28.832C27.4631 28.832 27.3698 29.4541 31.0401 30.3872" stroke="white" stroke-width="1.5" stroke-miterlimit="10" stroke-linecap="round" stroke-linejoin="round"></path> <path d="M23.0499 23.078C22.9255 23.6379 22.9566 24.0734 22.9566 24.0734C22.9566 25.5042 23.5165 27.1216 24.4496 27.8059C24.4496 27.8059 24.574 27.8992 24.6984 27.9614" stroke="white" stroke-width="1.5" stroke-miterlimit="10" stroke-linecap="round" stroke-linejoin="round"></path> <path d="M28.213 23.078C28.3374 23.6379 28.3063 24.0734 28.3063 24.0734C28.3063 25.5042 27.7464 27.1216 26.8133 27.8059C26.8133 27.8059 26.6889 27.8992 26.5645 27.9614" stroke="white" stroke-width="1.5" stroke-miterlimit="10" stroke-linecap="round" stroke-linejoin="round"></path> <circle cx="212.803" cy="355.159" r="23.2348" fill="#092354" stroke="#ECF3FB" stroke-width="5"></circle> <path d="M213 364.18V345.43" stroke="white" stroke-width="1.7" stroke-miterlimit="10" stroke-linejoin="round"></path> <path d="M222.346 354.894H203.596" stroke="white" stroke-width="1.7" stroke-miterlimit="10" stroke-linejoin="round"></path> <path d="M212.227 345.787C212.227 345.787 203.239 353.585 212.227 363.882" stroke="white" stroke-width="1.7" stroke-miterlimit="10" stroke-linejoin="round"></path> <path d="M213.713 345.787C213.713 345.787 222.701 353.585 213.713 363.882" stroke="white" stroke-width="1.7" stroke-miterlimit="10" stroke-linejoin="round"></path> <mask id="path-25-inside-1_3517_29424" fill="white"><path d="M213 346.382C217.702 346.382 221.512 350.192 221.512 354.894C221.512 359.597 217.702 363.406 213 363.406C208.298 363.406 204.488 359.597 204.488 354.894C204.488 350.192 208.298 346.382 213 346.382ZM213 344.894C207.464 344.894 203 349.358 203 354.894C203 360.43 207.464 364.894 213 364.894C218.536 364.894 223 360.43 223 354.894C222.94 349.358 218.476 344.894 213 344.894Z"></path></mask> <path d="M213 346.382C217.702 346.382 221.512 350.192 221.512 354.894C221.512 359.597 217.702 363.406 213 363.406C208.298 363.406 204.488 359.597 204.488 354.894C204.488 350.192 208.298 346.382 213 346.382ZM213 344.894C207.464 344.894 203 349.358 203 354.894C203 360.43 207.464 364.894 213 364.894C218.536 364.894 223 360.43 223 354.894C222.94 349.358 218.476 344.894 213 344.894Z" fill="#394553"></path> <path d="M223 354.894H224.7V354.885L224.7 354.876L223 354.894ZM213 348.082C216.763 348.082 219.812 351.131 219.812 354.894H223.212C223.212 349.253 218.641 344.682 213 344.682V348.082ZM219.812 354.894C219.812 358.658 216.763 361.706 213 361.706V365.106C218.641 365.106 223.212 360.535 223.212 354.894H219.812ZM213 361.706C209.236 361.706 206.188 358.658 206.188 354.894H202.788C202.788 360.535 207.359 365.106 213 365.106V361.706ZM206.188 354.894C206.188 351.131 209.236 348.082 213 348.082V344.682C207.359 344.682 202.788 349.253 202.788 354.894H206.188ZM213 343.194C206.525 343.194 201.3 348.42 201.3 354.894H204.7C204.7 350.297 208.403 346.594 213 346.594V343.194ZM201.3 354.894C201.3 361.369 206.525 366.594 213 366.594V363.194C208.403 363.194 204.7 359.491 204.7 354.894H201.3ZM213 366.594C219.475 366.594 224.7 361.369 224.7 354.894H221.3C221.3 359.491 217.597 363.194 213 363.194V366.594ZM224.7 354.876C224.631 348.426 219.425 343.194 213 343.194V346.594C217.527 346.594 221.25 350.291 221.3 354.912L224.7 354.876Z" fill="white" mask="url(#path-25-inside-1_3517_29424)"></path> <g clip-path="url(#clip0_3517_29424)"><path d="M161 176.394H125C122.515 176.394 120.5 178.409 120.5 180.894V189.894C120.5 192.379 122.515 194.394 125 194.394H161C163.485 194.394 165.5 192.379 165.5 189.894V180.894C165.5 178.409 163.485 176.394 161 176.394Z" stroke="#343FF5" stroke-width="2" stroke-linecap="round" stroke-linejoin="round"></path> <path d="M161 199.394H125C122.515 199.394 120.5 201.409 120.5 203.894V212.894C120.5 215.379 122.515 217.394 125 217.394H161C163.485 217.394 165.5 215.379 165.5 212.894V203.894C165.5 201.409 163.485 199.394 161 199.394Z" stroke="#343FF5" stroke-width="2" stroke-linecap="round" stroke-linejoin="round"></path> <circle cx="129.5" cy="208.394" r="2.5" stroke="#343FF5" stroke-width="2"></circle> <circle cx="129.5" cy="185.394" r="2.5" stroke="#343FF5" stroke-width="2"></circle> <path d="M161 153.394H125C122.515 153.394 120.5 155.409 120.5 157.894V166.894C120.5 169.379 122.515 171.394 125 171.394H161C163.485 171.394 165.5 169.379 165.5 166.894V157.894C165.5 155.409 163.485 153.394 161 153.394Z" stroke="#343FF5" stroke-width="2" stroke-linecap="round" stroke-linejoin="round"></path> <circle cx="129.5" cy="162.394" r="2.5" stroke="#343FF5" stroke-width="2"></circle></g> <path d="M344 152.894H425C429.971 152.894 434 156.924 434 161.894V206.894C434 211.865 429.971 215.894 425 215.894H344C339.029 215.894 335 211.865 335 206.894V161.894C335 156.924 339.029 152.894 344 152.894Z" fill="url(#paint2_linear_3517_29424)" stroke="#90B0D5" stroke-width="2"></path> <path d="M378.667 177.659C378.803 177.496 378.948 177.339 379.093 177.183C379.099 177.175 379.114 177.174 379.121 177.166C379.134 177.15 379.155 177.141 379.169 177.126L379.182 177.11C379.282 177.021 379.391 176.926 379.514 176.842C379.952 176.527 380.406 176.287 380.886 176.13C382.423 175.618 384.134 175.933 385.476 177.133C387.35 178.798 387.182 181.477 385.687 183.258C383.796 185.914 380.549 189.618 385.045 192.938C385.854 193.535 386.453 194.027 389 194.724C387.333 195.015 385.79 194.925 384.071 194.509C382.855 193.859 380.944 192.467 380.292 190.586C379.308 187.734 382.023 183.472 383.334 181.831C385.136 179.558 382.22 177.099 380.075 179.845C378.953 181.276 376.992 185.326 377.673 188.33C378.071 190.033 378.603 191.275 380.71 192.98C380.32 192.762 379.94 192.514 379.572 192.237C374.677 187.917 375.247 181.238 378.667 177.659Z" fill="#414CFF"></path> <path d="M394.539 191.13C394.413 191.292 394.28 191.449 394.146 191.605C394.14 191.613 394.126 191.614 394.12 191.622C394.108 191.638 394.088 191.647 394.076 191.663L394.064 191.678C393.971 191.767 393.871 191.862 393.757 191.946C393.353 192.261 392.933 192.501 392.491 192.659C391.072 193.17 389.493 192.855 388.254 191.655C386.525 189.99 386.679 187.311 388.06 185.53C389.805 182.874 392.802 179.17 388.65 175.85C387.905 175.253 387.351 174.761 385 174.064C386.538 173.773 387.963 173.863 389.549 174.279C390.672 174.929 392.436 176.322 393.037 178.202C393.945 181.054 391.44 185.317 390.23 186.958C388.567 189.23 391.258 191.689 393.238 188.943C394.273 187.512 396.084 183.462 395.455 180.459C395.087 178.755 394.597 177.513 392.652 175.808C393.012 176.026 393.362 176.274 393.703 176.552C398.22 180.87 397.696 187.55 394.539 191.13Z" fill="#414CFF"></path> <path d="M216.145 184.725L295.741 184.725" stroke="#343FF5" stroke-width="1.5"></path> <circle opacity="0.1" cx="311.159" cy="185.257" r="11.1649" fill="#343FF5"></circle> <circle cx="311.158" cy="185.257" r="2.65831" fill="#343FF5"></circle> <circle opacity="0.1" cx="196.5" cy="185.394" r="14.5" fill="#343FF5"></circle> <circle cx="196.5" cy="185.394" r="7.75" fill="#E7F0FB" stroke="#7D92CA" stroke-width="1.5"></circle> <circle cx="196.5" cy="185.394" r="2.5" fill="#343FF5"></circle> <defs><linearGradient id="paint0_linear_3517_29424" x1="129.374" y1="120.449" x2="157.988" y2="189.379" gradientUnits="userSpaceOnUse"><stop stop-color="white"></stop> <stop offset="1" stop-color="white" stop-opacity="0"></stop></linearGradient> <linearGradient id="paint1_linear_3517_29424" x1="442.661" y1="222.461" x2="440.943" y2="239.452" gradientUnits="userSpaceOnUse"><stop stop-color="#BDCEEE" stop-opacity="0.8"></stop> <stop offset="1" stop-color="#C2D2F0" stop-opacity="0.3"></stop></linearGradient> <linearGradient id="paint2_linear_3517_29424" x1="432.235" y1="152.492" x2="374.597" y2="221.618" gradientUnits="userSpaceOnUse"><stop stop-color="#BDCEEE" stop-opacity="0.8"></stop> <stop offset="1" stop-color="#C2D2F0" stop-opacity="0.3"></stop></linearGradient> <clipPath id="clip0_3517_29424"><rect width="48" height="67" fill="white" transform="translate(119 151.894)"></rect></clipPath></defs>
                        </svg>