<svg aria-hidden="true" focusable="false" data-prefix="fab" data-icon="twitter" role="img" xmlns="http://www.w3.org/2000/svg" viewBox="0 0 120 122" fill="none" class="icon"><path d="M44.4954 36.5682L56.1669 48.2397L67.8384 36.5682" stroke="white" stroke-width="1.7" stroke-miterlimit="5"></path> <path d="M56.167 24.8967L56.167 48.2397" stroke="white" stroke-width="1.7" stroke-miterlimit="5"></path> <path d="M30.0449 37.124C38.6396 37.124 45.6069 30.1567 45.6069 21.562C45.6069 12.9673 38.6396 6 30.0449 6C21.4503 6 14.4829 12.9673 14.4829 21.562C14.4829 30.1567 21.4503 37.124 30.0449 37.124Z" stroke="white" stroke-width="1.7" stroke-miterlimit="5"></path> <path d="M28.4884 21.5617C27.6629 21.5617 26.8713 21.2338 26.2876 20.6501C25.7039 20.0664 25.376 19.2748 25.376 18.4493C25.376 17.6239 25.7039 16.8322 26.2876 16.2485C26.8713 15.6648 27.6629 15.3369 28.4884 15.3369" stroke="white" stroke-width="1.7" stroke-miterlimit="5"></path> <path d="M31.6011 21.562C32.4265 21.562 33.2182 21.8899 33.8019 22.4736C34.3856 23.0573 34.7135 23.849 34.7135 24.6744C34.7135 25.4999 34.3856 26.2915 33.8019 26.8752C33.2182 27.4589 32.4265 27.7868 31.6011 27.7868" stroke="white" stroke-width="1.7" stroke-miterlimit="5"></path> <path d="M30.0449 12.2251V15.3375" stroke="white" stroke-width="1.7" stroke-miterlimit="5"></path> <path d="M30.0449 27.7871V30.8995" stroke="white" stroke-width="1.7" stroke-miterlimit="5"></path> <path d="M28.4888 21.562H31.6012" stroke="white" stroke-width="1.7" stroke-miterlimit="5"></path> <path d="M34.7136 16.8931C34.7136 16.8931 33.1574 15.3369 31.6012 15.3369H28.4888" stroke="white" stroke-width="1.7" stroke-miterlimit="5"></path> <path d="M25.376 26.2311C25.376 26.2311 26.9322 27.7873 28.4884 27.7873H31.6008" stroke="white" stroke-width="1.7" stroke-miterlimit="5"></path> <path d="M91.7042 63.1987C95.0627 69.0406 102.521 71.0537 108.363 67.6952C114.205 64.3367 116.218 56.8783 112.859 51.0364C109.501 45.1945 102.043 43.1814 96.2007 46.5399C90.3588 49.8984 88.3457 57.3568 91.7042 63.1987Z" stroke="white" stroke-width="1.7" stroke-miterlimit="5"></path> <path d="M101.673 56.059C101.351 55.4979 101.264 54.8317 101.433 54.2068C101.601 53.582 102.011 53.0498 102.572 52.7272C103.134 52.4047 103.8 52.3182 104.425 52.4868C105.049 52.6555 105.582 53.0654 105.904 53.6265" stroke="white" stroke-width="1.7" stroke-miterlimit="5"></path> <path d="M102.89 58.175C103.212 58.7361 103.299 59.4024 103.13 60.0272C102.961 60.652 102.551 61.1842 101.99 61.5068C101.429 61.8294 100.763 61.9158 100.138 61.7472C99.5134 61.5785 98.9812 61.1686 98.6586 60.6075" stroke="white" stroke-width="1.7" stroke-miterlimit="5"></path> <path d="M108.628 53.4685L106.512 54.6847" stroke="white" stroke-width="1.7" stroke-miterlimit="5"></path> <path d="M98.0503 59.5499L95.9348 60.7662" stroke="white" stroke-width="1.7" stroke-miterlimit="5"></path> <path d="M101.674 56.0602L102.891 58.1757" stroke="white" stroke-width="1.7" stroke-miterlimit="5"></path> <path d="M107.28 58.4664C107.28 58.4664 107.73 56.8005 107.122 55.7427L105.905 53.6272" stroke="white" stroke-width="1.7" stroke-miterlimit="5"></path> <path d="M97.2837 55.7682C97.2837 55.7682 96.834 57.4341 97.4422 58.4918L98.6584 60.6074" stroke="white" stroke-width="1.7" stroke-miterlimit="5"></path> <path d="M83.9979 30.4374L96.0156 21.7526L97.5281 36.5026L83.9979 30.4374Z" stroke="white" stroke-width="1.7"></path> <path d="M11.8666 59.752L8.80178 45.2448L22.8978 49.8441L11.8666 59.752Z" stroke="white" stroke-width="1.7"></path> <path d="M24.4868 74.6953C24.4868 73.1947 25.6984 71.9719 27.2102 71.9719H81.6438C83.7002 71.9719 85.3565 73.6393 85.3565 75.6846V103.807C85.3565 108.887 81.2437 113 76.1638 113H33.6795C28.5996 113 24.4868 108.887 24.4868 103.807V74.6953" stroke="white" stroke-width="1.7" stroke-miterlimit="10"></path> <path d="M84.689 81.7535H87.8014C89.3798 81.7535 90.6692 83.0318 90.6692 84.6214V87.1447" stroke="white" stroke-width="1.7" stroke-miterlimit="10"></path> <path d="M88.5244 90.7797V98.5051" stroke="white" stroke-width="1.7" stroke-miterlimit="10" stroke-linecap="round"></path> <path d="M28.9331 83.8101V99.8612" stroke="white" stroke-width="1.7" stroke-miterlimit="10" stroke-linecap="round"></path> <path d="M34.4907 77.1406H38.937" stroke="white" stroke-width="1.7" stroke-miterlimit="10" stroke-linecap="round"></path> <path d="M43.3833 77.1406H47.8296" stroke="white" stroke-width="1.7" stroke-miterlimit="10" stroke-linecap="round"></path> <path d="M52.2759 77.1406H56.7222" stroke="white" stroke-width="1.7" stroke-miterlimit="10" stroke-linecap="round"></path> <path d="M61.1685 77.1406H65.6147" stroke="white" stroke-width="1.7" stroke-miterlimit="10" stroke-linecap="round"></path> <path d="M70.061 77.1406H74.5073" stroke="white" stroke-width="1.7" stroke-miterlimit="10" stroke-linecap="round"></path> <path d="M24.4868 75.1619C24.4868 71.3159 27.2213 68.2035 30.5782 68.2035H79.2651C82.6331 68.2035 85.3565 71.3159 85.3565 75.1619" stroke="white" stroke-width="1.7" stroke-miterlimit="10" stroke-linecap="round"></path> <path d="M24.4868 75.7623V74.2505C24.4868 68.4815 29.1665 63.8018 34.9356 63.8018H74.9077C80.6768 63.8018 85.3565 68.4815 85.3565 74.2505V75.4621" stroke="white" stroke-width="1.7" stroke-miterlimit="10" stroke-linecap="round"></path> <path d="M73.1399 97.8716C74.9264 97.8716 76.3746 96.4234 76.3746 94.6369C76.3746 92.8504 74.9264 91.4022 73.1399 91.4022C71.3535 91.4022 69.9053 92.8504 69.9053 94.6369C69.9053 96.4234 71.3535 97.8716 73.1399 97.8716Z" stroke="white" stroke-width="1.7" stroke-miterlimit="10" stroke-linecap="round"></path> <path d="M73.4516 86.6112H89.6361C91.3924 86.6112 92.8041 88.034 92.8041 89.7792V99.2276C92.8041 100.984 91.3813 102.396 89.6361 102.396H73.4516C69.0943 102.396 65.5483 98.8607 65.5483 94.4923C65.5483 90.1349 69.0831 86.589 73.4516 86.589V86.6112Z" stroke="white" stroke-width="1.7" stroke-miterlimit="10"></path></svg>