<svg data-v-7ad99344="" aria-hidden="true" focusable="false" data-prefix="fab" data-icon="blog" role="img" xmlns="http://www.w3.org/2000/svg" viewBox="0 0 109 13" class="h-7 w-28 !w-16 md:!w-18 4md:!w-20 lg:!w-22 xl:!w-24 2xl:!w-28"><path d="M0 0.168148H3.04215L6.2552 8.43144H6.39192L9.60498 0.168148H12.6471V12.467H10.2544V4.46194H10.1576L7.13822 12.4069H5.5089L2.48955 4.43191H2.3927V12.467H0V0.168148Z" fill="#232325"></path> <path d="M16.6905 12.467H14.0471L18.0748 0.168148H21.2537L25.2757 12.467H22.6324L19.7099 2.97863H19.6187L16.6905 12.467ZM16.5253 7.63273H22.7691V9.66252H16.5253V7.63273Z" fill="#232325"></path> <path d="M26.68 12.467V0.168148H31.2831C32.1642 0.168148 32.9162 0.334295 33.5391 0.666588C34.1657 0.994878 34.6424 1.46129 34.969 2.06582C35.2994 2.66635 35.4646 3.37298 35.4646 4.18569C35.4646 5.00241 35.2975 5.70503 34.9633 6.29355C34.6291 6.87807 34.1449 7.32646 33.5106 7.63874C32.8801 7.95101 32.1168 8.10715 31.2204 8.10715H28.1384V6.01731H30.8217C31.2926 6.01731 31.6838 5.94925 31.9952 5.81313C32.3067 5.67701 32.5383 5.47283 32.6903 5.20059C32.846 4.92835 32.9238 4.59005 32.9238 4.18569C32.9238 3.77733 32.846 3.43303 32.6903 3.15278C32.5383 2.87253 32.3048 2.66035 31.9895 2.51622C31.6781 2.36809 31.285 2.29402 30.8103 2.29402H29.1468V12.467H26.68ZM32.9808 6.87006L35.8805 12.467H33.1574L30.3203 6.87006H32.9808Z" fill="#232325"></path> <path d="M37.2079 12.467V0.168148H39.6747V5.59093H39.8285L44.0271 0.168148H46.9838L42.6541 5.67501L47.035 12.467H44.0841L40.8881 7.41054L39.6747 8.97192V12.467H37.2079Z" fill="#232325"></path> <path d="M62.2757 4.47395H59.7804C59.7349 4.13365 59.6418 3.83138 59.5013 3.56715C59.3608 3.29891 59.1804 3.07071 58.9601 2.88254C58.7398 2.69438 58.4853 2.55025 58.1967 2.45016C57.9119 2.35007 57.6023 2.30003 57.2681 2.30003C56.6642 2.30003 56.1382 2.45817 55.6901 2.77445C55.2419 3.08672 54.8944 3.54313 54.6475 4.14366C54.4007 4.74018 54.2772 5.46482 54.2772 6.31757C54.2772 7.19435 54.4007 7.931 54.6475 8.52752C54.8982 9.12405 55.2476 9.57445 55.6958 9.87871C56.1439 10.183 56.6623 10.3351 57.251 10.3351C57.5814 10.3351 57.8872 10.2891 58.1682 10.197C58.4531 10.1049 58.7056 9.9708 58.9259 9.79464C59.1462 9.61448 59.3285 9.39629 59.4728 9.14006C59.6209 8.88384 59.7235 8.59158 59.7804 8.26329L62.2757 8.2753C62.2111 8.8398 62.0497 9.38428 61.7915 9.90874C61.537 10.4292 61.1933 10.8956 60.7603 11.308C60.3311 11.7163 59.8184 12.0406 59.2221 12.2808C58.6297 12.517 57.9593 12.6351 57.2111 12.6351C56.1705 12.6351 55.24 12.3869 54.4197 11.8905C53.6031 11.3941 52.9575 10.6754 52.4827 9.73459C52.0118 8.79376 51.7763 7.65475 51.7763 6.31757C51.7763 4.97639 52.0156 3.83538 52.4941 2.89455C52.9726 1.95372 53.6221 1.23709 54.4424 0.744657C55.2628 0.248219 56.1857 0 57.2111 0C57.8872 0 58.5138 0.100088 59.0911 0.300265C59.6722 0.500442 60.1868 0.792699 60.635 1.17704C61.0831 1.55737 61.4477 2.02379 61.7288 2.57627C62.0136 3.12876 62.1959 3.76132 62.2757 4.47395Z" fill="#232325"></path> <path d="M71.2512 0.168148H73.7179V8.15519C73.7179 9.05198 73.5147 9.83668 73.1083 10.5093C72.7058 11.1819 72.1418 11.7063 71.4164 12.0827C70.691 12.455 69.8459 12.6412 68.8812 12.6412C67.9128 12.6412 67.0658 12.455 66.3404 12.0827C65.615 11.7063 65.051 11.1819 64.6484 10.5093C64.2459 9.83668 64.0446 9.05198 64.0446 8.15519V0.168148H66.5113V7.933C66.5113 8.40141 66.6082 8.81778 66.8019 9.1821C66.9994 9.54642 67.2766 9.83267 67.6336 10.0409C67.9906 10.249 68.4065 10.3531 68.8812 10.3531C69.3598 10.3531 69.7757 10.249 70.1289 10.0409C70.4859 9.83267 70.7612 9.54642 70.9549 9.1821C71.1524 8.81778 71.2512 8.40141 71.2512 7.933V0.168148Z" fill="#232325"></path> <path d="M75.7474 12.467V0.168148H80.4189C81.2772 0.168148 81.9931 0.302267 82.5666 0.570504C83.1401 0.83874 83.5712 1.21107 83.8598 1.68749C84.1485 2.15991 84.2928 2.70439 84.2928 3.32093C84.2928 3.80135 84.2016 4.22373 84.0193 4.58805C83.837 4.94837 83.5864 5.24463 83.2673 5.47683C82.9521 5.70503 82.5913 5.86718 82.1849 5.96326V6.08337C82.6293 6.10338 83.0452 6.2355 83.4326 6.47972C83.8237 6.72393 84.1409 7.06623 84.3839 7.50662C84.627 7.94301 84.7485 8.46347 84.7485 9.068C84.7485 9.72057 84.5947 10.3031 84.2871 10.8155C83.9833 11.324 83.5332 11.7263 82.9369 12.0226C82.3407 12.3189 81.6058 12.467 80.7322 12.467H75.7474ZM78.2142 10.3411H80.2252C80.9126 10.3411 81.414 10.203 81.7292 9.92676C82.0444 9.64651 82.202 9.27418 82.202 8.80977C82.202 8.46947 82.1242 8.16921 81.9685 7.90898C81.8127 7.64875 81.5906 7.44457 81.3019 7.29644C81.0171 7.14831 80.6772 7.07424 80.2822 7.07424H78.2142V10.3411ZM78.2142 5.31469H80.0429C80.3809 5.31469 80.681 5.25263 80.943 5.12852C81.2089 5.00041 81.4178 4.82025 81.5697 4.58805C81.7254 4.35584 81.8032 4.0776 81.8032 3.75331C81.8032 3.30892 81.6532 2.9506 81.3532 2.67836C81.057 2.40612 80.6354 2.27 80.0885 2.27H78.2142V5.31469Z" fill="#232325"></path> <path d="M88.3647 12.467H85.7213L89.749 0.168148H92.9279L96.9499 12.467H94.3065L91.384 2.97863H91.2929L88.3647 12.467ZM88.1994 7.63273H94.4433V9.66252H88.1994V7.63273Z" fill="#232325"></path> <path d="M108.113 0.168148V12.467H105.982L100.906 4.72617H100.821V12.467H98.3542V0.168148H100.519L105.555 7.90297H105.658V0.168148H108.113Z" fill="#232325"></path></svg>