<svg data-v-7ad99344="" aria-hidden="true" focusable="false" data-prefix="fab" data-icon="blog" role="img" xmlns="http://www.w3.org/2000/svg" viewBox="0 0 112 25" class="h-7 w-28 !w-16 md:!w-18 4md:!w-20 lg:!w-22 xl:!w-24 2xl:!w-28">
	<g clip-path="url(#clip0_21_5504)">
		<path d="M6.30648 10.478L10.7526 5.86826L15.1988 10.478L17.7846 7.79383L10.7526 0.5L3.72064 7.79383L6.30648 10.478ZM2.38121 9.73886L4.76241 12.2285L2.38121 14.7181L0 12.2285L2.38121 9.73886ZM6.30648 13.9985L10.7526 18.6082L15.1988 13.9985L17.7846 16.6826L10.7712 23.9764L3.75784 16.6826L6.30648 13.9985ZM21.282 12.2285L18.9008 14.7181L16.5196 12.2285L18.9008 9.73886L21.282 12.2285Z" fill="#232325">
		</path>
		<path d="M13.2827 11.9379L10.7527 9.29271L8.89237 11.2377L8.66913 11.4711L8.22266 11.9379L10.7527 14.5832L13.2827 11.9379ZM25.6352 6.35572H31.1604C32.537 6.35572 33.5602 6.72528 34.2671 7.44494C34.8066 8.00899 35.0856 8.7092 35.0856 9.54556V9.58446C35.0856 9.89566 35.0484 10.2069 34.9554 10.5181C34.8624 10.7904 34.7508 11.0238 34.6206 11.2572C34.4717 11.4711 34.3229 11.6656 34.1369 11.8212C33.9509 11.9768 33.7462 12.1324 33.5416 12.2491C34.2299 12.5214 34.7694 12.891 35.1601 13.3578C35.5507 13.8246 35.7554 14.4665 35.7554 15.2834V15.3223C35.7554 15.8863 35.6437 16.3726 35.4391 16.8005C35.2345 17.2284 34.9182 17.598 34.5462 17.8508C34.1555 18.1426 33.6904 18.3371 33.1323 18.4927C32.5742 18.6288 31.9789 18.7066 31.3092 18.7066H25.6538V6.35572H25.6352ZM30.6209 11.3544C31.1976 11.3544 31.6627 11.2572 31.9975 11.0432C32.3324 10.8293 32.4998 10.4986 32.4998 10.0513V10.0124C32.4998 9.60391 32.351 9.29271 32.0533 9.07875C31.7557 8.8648 31.3278 8.7481 30.7697 8.7481H28.1839V11.3544C28.2025 11.3544 30.6209 11.3544 30.6209 11.3544ZM31.3092 16.3142C31.8859 16.3142 32.351 16.1975 32.6672 15.9836C33.0021 15.7696 33.1695 15.4195 33.1695 14.9722V14.9333C33.1695 14.5248 33.0207 14.1942 32.7044 13.9608C32.4068 13.7274 31.9045 13.5912 31.2162 13.5912H28.1839V16.3142H31.3092ZM39.1225 6.35572H41.9316V18.6872H39.1225V6.35572ZM45.8755 6.35572H48.3125L53.9493 13.9608V6.35572H56.5537V18.6872H54.3027L48.4799 10.8487V18.6872H45.8755V6.35572ZM64.3484 6.35572H66.7111L71.7153 18.6872H69.0365L67.9761 15.9447H63.0462L61.9858 18.6872H59.3628L64.3484 6.35572ZM67.0459 13.5718L65.5018 9.60391L63.9578 13.5718H67.0459ZM74.5244 6.35572H76.9614L82.5982 13.9608V6.35572H85.2026V18.6872H82.9516L77.1288 10.8487V18.6872H74.5244V6.35572ZM94.8205 18.7066C93.9275 18.7066 93.0904 18.5316 92.3276 18.2009C91.5835 17.8897 90.9138 17.4229 90.3371 16.8394C89.779 16.2559 89.3325 15.5557 89.0349 14.7971C88.7186 13.9997 88.5512 13.1439 88.5698 12.288V12.2491C88.5698 11.3544 88.7186 10.5181 89.0349 9.74006C89.3325 8.9815 89.779 8.2813 90.3371 7.67834C90.8952 7.09483 91.5649 6.62803 92.3462 6.27792C93.1276 5.94727 93.9833 5.77222 94.9135 5.77222C95.4902 5.77222 95.9925 5.81112 96.4761 5.90837C96.9412 6.00562 97.3691 6.14177 97.7598 6.29737C98.1504 6.47242 98.5039 6.66693 98.8201 6.90033C99.1364 7.13373 99.4526 7.40604 99.7317 7.67834L98.0202 9.70116C97.5365 9.25381 97.0528 8.92315 96.5692 8.6703C96.0855 8.41745 95.5274 8.30075 94.9135 8.30075C94.4112 8.30075 93.9275 8.398 93.4996 8.61195C93.0718 8.80645 92.6997 9.09821 92.3834 9.44831C92.0672 9.81786 91.8253 10.2263 91.6579 10.6931C91.4905 11.1599 91.3975 11.6656 91.3975 12.2102V12.2491C91.3975 12.7937 91.4905 13.2995 91.6579 13.7663C91.8253 14.2331 92.0672 14.661 92.3834 15.0111C92.6997 15.3612 93.0532 15.6529 93.4996 15.8669C93.9461 16.0808 94.4484 16.1781 94.9321 16.1781C95.6204 16.1781 96.2157 16.0419 96.6994 15.7891C97.1831 15.5362 97.6667 15.1667 98.1318 14.7193L99.8433 16.4893C99.5271 16.8394 99.2108 17.1506 98.876 17.4229C98.5411 17.6952 98.169 17.9286 97.7784 18.1231C97.3505 18.3176 96.9226 18.4732 96.4575 18.5705C95.9367 18.6483 95.4158 18.7066 94.8205 18.7066ZM102.615 6.35572H111.526V8.76755H105.182V11.2766H110.763V13.6885H105.182V16.2753H111.601V18.6872H102.615V6.35572Z" fill="#232325">
		</path>
	</g>
	<defs>
		<clipPath id="clip0_21_5504">
			<rect width="112" height="24" fill="white" transform="translate(0 0.5)">
			</rect>
		</clipPath>
	</defs>
</svg>
