<svg data-v-7ad99344="" aria-hidden="true" focusable="false" data-prefix="fab" data-icon="blog" role="img" xmlns="http://www.w3.org/2000/svg" viewBox="0 0 124 11" class="h-7 w-28 !w-16 md:!w-18 4md:!w-20 lg:!w-22 xl:!w-24 2xl:!w-28"><path d="M21.5059 0L16.6836 10.8353H18.2503L19.3084 8.3925H25.555L26.613 10.8353H28.1798L23.3575 0H21.5059ZM20.0002 6.86879L22.4419 1.40278L22.4826 1.49952L24.8632 6.86879H20.0002Z" fill="#232325"></path> <path d="M36.6055 0V10.8353H38.0298V1.78975L38.1112 1.8865L45.1106 10.8353H46.9622V0H45.5176V9.0697L45.4362 8.97296L38.4164 0H36.6055Z" fill="#232325"></path> <path d="M59.7388 3.36184H56.8698V4.88555H59.7388V10.8353H61.1834V4.88555H64.0524V3.36184H61.1834V1.52371H65.5784V0H55.3438V1.52371H59.7388V3.36184Z" fill="#232325"></path> <path d="M75.4087 6.19158H80.8007V4.66787H75.4087V1.52371H83.5272V0H73.9844V10.8353H83.5272V9.31156H75.4087V6.19158Z" fill="#232325"></path> <path d="M117.261 0H115.389L110.566 10.8353H112.133L113.191 8.3925H119.438L119.458 8.41669L120.496 10.8353H122.063L117.261 0ZM113.903 6.86879L116.345 1.40278L116.386 1.49952L118.766 6.86879H113.903Z" fill="#232325"></path> <path d="M7.46743 0H0V10.8353H1.44465V6.65112H7.46743C9.01382 6.65112 10.2754 5.15159 10.2754 3.31347C10.255 1.49952 9.01382 0 7.46743 0ZM7.46743 5.12741H1.44465V1.52371H7.46743C8.30167 1.52371 8.97313 2.32184 8.97313 3.31347C8.97313 4.30509 8.30167 5.12741 7.46743 5.12741Z" fill="#232325"></path> <path d="M100.108 6.60274C101.451 6.31251 102.428 4.93392 102.428 3.31347C102.428 1.47534 101.166 0 99.6198 0H92.1523V10.8353H93.597V6.65112H98.3176L98.3379 6.6753L100.82 10.8353H102.489L100.067 6.60274H100.108ZM93.6173 5.12741V1.52371H99.6401C100.474 1.52371 101.146 2.32184 101.146 3.31347C101.146 4.30509 100.474 5.12741 99.6401 5.12741H93.6173Z" fill="#232325"></path></svg>